<?xml version="1.0" encoding="UTF-8" standalone="no"?>
<!DOCTYPE svg PUBLIC "-//W3C//DTD SVG 1.1//EN" "http://www.w3.org/Graphics/SVG/1.1/DTD/svg11.dtd">
<svg width="100%" height="100%" viewBox="0 0 1032 136" version="1.1" xmlns="http://www.w3.org/2000/svg" xmlns:xlink="http://www.w3.org/1999/xlink" xml:space="preserve" xmlns:serif="http://www.serif.com/" style="fill-rule:evenodd;clip-rule:evenodd;stroke-linejoin:round;stroke-miterlimit:2;">
    <g transform="matrix(0.9375,0,0,0.9375,8.50676,-70.3172)">
        <g id="Layer-2" serif:id="Layer 2">
            <g id="flowRoot825">
                <path id="path824" d="M280.401,106.339C288.491,106.339 295.198,107.619 300.523,110.179C305.95,112.739 308.664,116.016 308.664,120.01C308.664,121.751 308.101,123.338 306.974,124.771C305.848,126.103 304.414,126.768 302.673,126.768C301.342,126.768 300.267,126.563 299.448,126.154C298.731,125.744 297.707,125.079 296.376,124.157C295.761,123.543 294.789,122.826 293.457,122.007C292.229,121.392 290.488,120.88 288.235,120.471C285.982,120.061 283.934,119.856 282.091,119.856C276.766,119.856 272.056,121.085 267.96,123.543C263.864,126 260.689,129.431 258.437,133.834C256.184,138.135 255.057,142.947 255.057,148.272C255.057,153.699 256.133,158.563 258.283,162.864C260.536,167.165 263.659,170.544 267.653,173.002C271.646,175.459 276.203,176.688 281.323,176.688C286.648,176.688 290.949,175.869 294.225,174.231C294.942,173.821 295.915,173.155 297.144,172.234C298.168,171.415 299.038,170.8 299.755,170.391C300.574,169.981 301.547,169.776 302.673,169.776C304.721,169.776 306.309,170.442 307.435,171.773C308.664,173.002 309.278,174.64 309.278,176.688C309.278,178.839 307.896,180.989 305.131,183.139C302.469,185.187 298.833,186.877 294.225,188.208C289.72,189.539 284.856,190.205 279.633,190.205C271.851,190.205 264.99,188.413 259.051,184.829C253.112,181.143 248.504,176.125 245.227,169.776C242.053,163.325 240.465,156.157 240.465,148.272C240.465,140.387 242.155,133.271 245.534,126.922C248.913,120.471 253.624,115.453 259.665,111.869C265.707,108.183 272.619,106.339 280.401,106.339Z" style="fill:rgb(34,34,34);fill-rule:nonzero;"/>
                <path id="path826" d="M364.37,106.8C382.393,106.8 391.404,117.962 391.404,140.285L391.404,181.296C391.404,183.344 390.687,185.085 389.253,186.519C387.922,187.952 386.181,188.669 384.031,188.669C381.983,188.669 380.242,187.952 378.809,186.519C377.477,185.085 376.812,183.344 376.812,181.296L376.812,140.285C376.812,126.973 371.18,120.317 359.916,120.317C353.874,120.317 348.857,122.263 344.863,126.154C340.869,129.943 338.873,134.653 338.873,140.285L338.873,181.296C338.873,183.344 338.156,185.085 336.722,186.519C335.391,187.952 333.65,188.669 331.5,188.669C329.349,188.669 327.609,188.003 326.277,186.672C324.946,185.239 324.281,183.447 324.281,181.296L324.281,82.378C324.281,80.33 324.946,78.589 326.277,77.155C327.711,75.722 329.452,75.005 331.5,75.005C333.65,75.005 335.391,75.722 336.722,77.155C338.156,78.589 338.873,80.33 338.873,82.378L338.873,121.239C341.433,117.245 345.017,113.866 349.625,111.101C354.233,108.234 359.148,106.8 364.37,106.8Z" style="fill:rgb(34,34,34);fill-rule:nonzero;"/>
                <path id="path828" d="M478.361,107.107C480.511,107.107 482.252,107.824 483.583,109.258C485.017,110.589 485.733,112.381 485.733,114.634L485.733,181.296C485.733,183.344 485.017,185.085 483.583,186.519C482.252,187.952 480.511,188.669 478.361,188.669C476.21,188.669 474.469,188.003 473.138,186.672C471.807,185.239 471.141,183.447 471.141,181.296L471.141,177.303C468.479,180.887 464.844,183.959 460.236,186.519C455.628,188.976 450.661,190.205 445.337,190.205C438.373,190.205 432.025,188.413 426.29,184.829C420.658,181.245 416.204,176.279 412.927,169.93C409.753,163.479 408.165,156.259 408.165,148.272C408.165,140.285 409.753,133.117 412.927,126.768C416.204,120.317 420.658,115.299 426.29,111.715C431.922,108.131 438.117,106.339 444.876,106.339C450.303,106.339 455.321,107.466 459.929,109.719C464.639,111.971 468.377,114.839 471.141,118.32L471.141,114.634C471.141,112.483 471.807,110.691 473.138,109.258C474.469,107.824 476.21,107.107 478.361,107.107ZM447.026,176.688C451.839,176.688 456.089,175.459 459.775,173.002C463.564,170.544 466.482,167.165 468.53,162.864C470.681,158.563 471.756,153.699 471.756,148.272C471.756,142.947 470.681,138.135 468.53,133.834C466.482,129.533 463.564,126.154 459.775,123.696C456.089,121.136 451.839,119.856 447.026,119.856C442.213,119.856 437.913,121.085 434.124,123.543C430.437,126 427.519,129.379 425.369,133.68C423.321,137.981 422.297,142.845 422.297,148.272C422.297,153.699 423.321,158.563 425.369,162.864C427.519,167.165 430.437,170.544 434.124,173.002C437.913,175.459 442.213,176.688 447.026,176.688Z" style="fill:rgb(34,34,34);fill-rule:nonzero;"/>
                <path id="path830" d="M547.37,106.339C550.033,106.339 552.337,107.056 554.282,108.49C556.228,109.821 557.201,111.511 557.201,113.559C557.201,116.016 556.535,117.911 555.204,119.242C553.975,120.471 552.439,121.085 550.596,121.085C549.674,121.085 548.292,120.778 546.449,120.163C544.298,119.447 542.609,119.088 541.38,119.088C538.205,119.088 535.082,120.215 532.01,122.467C529.041,124.618 526.583,127.639 524.637,131.53C522.794,135.319 521.873,139.568 521.873,144.279L521.873,181.296C521.873,183.344 521.156,185.085 519.722,186.519C518.391,187.952 516.65,188.669 514.5,188.669C512.349,188.669 510.609,188.003 509.277,186.672C507.946,185.239 507.281,183.447 507.281,181.296L507.281,115.555C507.281,113.507 507.946,111.767 509.277,110.333C510.711,108.899 512.452,108.183 514.5,108.183C516.65,108.183 518.391,108.899 519.722,110.333C521.156,111.767 521.873,113.507 521.873,115.555L521.873,123.389C524.125,118.371 527.505,114.327 532.01,111.255C536.516,108.08 541.636,106.442 547.37,106.339Z" style="fill:rgb(34,34,34);fill-rule:nonzero;"/>
                <path id="path832" d="M635.457,107.107C637.608,107.107 639.349,107.824 640.68,109.258C642.113,110.589 642.83,112.381 642.83,114.634L642.83,182.218C642.83,190.512 641.038,197.424 637.454,202.954C633.973,208.586 629.211,212.733 623.169,215.395C617.128,218.058 610.318,219.389 602.741,219.389C598.645,219.389 593.832,218.672 588.302,217.239C582.875,215.805 579.393,214.32 577.857,212.784C574.683,211.146 573.096,209.098 573.096,206.64C573.096,206.026 573.301,205.207 573.71,204.183C574.837,201.623 576.731,200.343 579.393,200.343C580.725,200.343 582.158,200.65 583.694,201.264C591.886,204.439 598.286,206.026 602.894,206.026C611.086,206.026 617.333,204.029 621.633,200.035C626.037,196.144 628.238,190.768 628.238,183.907L628.238,175.613C626.088,179.607 622.453,183.037 617.333,185.904C612.315,188.771 606.99,190.205 601.358,190.205C594.293,190.205 587.841,188.413 582.005,184.829C576.168,181.245 571.56,176.279 568.181,169.93C564.904,163.479 563.265,156.259 563.265,148.272C563.265,140.285 564.904,133.117 568.181,126.768C571.56,120.317 576.117,115.299 581.851,111.715C587.688,108.131 594.088,106.339 601.051,106.339C606.683,106.339 611.905,107.619 616.718,110.179C621.633,112.739 625.473,115.863 628.238,119.549L628.238,114.634C628.238,112.483 628.904,110.691 630.235,109.258C631.566,107.824 633.307,107.107 635.457,107.107ZM603.048,176.688C608.065,176.688 612.52,175.511 616.411,173.155C620.302,170.698 623.323,167.319 625.473,163.018C627.726,158.615 628.853,153.699 628.853,148.272C628.853,142.845 627.726,137.981 625.473,133.68C623.323,129.379 620.302,126 616.411,123.543C612.52,121.085 608.065,119.856 603.048,119.856C598.133,119.856 593.729,121.085 589.838,123.543C585.947,126 582.875,129.431 580.622,133.834C578.472,138.135 577.397,142.947 577.397,148.272C577.397,153.597 578.472,158.461 580.622,162.864C582.875,167.165 585.947,170.544 589.838,173.002C593.729,175.459 598.133,176.688 603.048,176.688Z" style="fill:rgb(34,34,34);fill-rule:nonzero;"/>
                <path id="path834" d="M732.137,145.354C732.034,147.197 731.266,148.784 729.833,150.115C728.399,151.344 726.709,151.959 724.764,151.959L670.697,151.959C671.413,159.434 674.229,165.424 679.145,169.93C684.162,174.435 690.255,176.688 697.423,176.688C702.338,176.688 706.332,175.971 709.404,174.538C712.476,173.104 715.189,171.261 717.545,169.008C719.081,168.087 720.565,167.626 721.999,167.626C723.74,167.626 725.173,168.24 726.3,169.469C727.529,170.698 728.143,172.131 728.143,173.77C728.143,175.92 727.119,177.866 725.071,179.607C722.101,182.576 718.159,185.085 713.244,187.133C708.329,189.181 703.311,190.205 698.191,190.205C689.897,190.205 682.575,188.464 676.226,184.983C669.98,181.501 665.116,176.637 661.634,170.391C658.255,164.144 656.565,157.079 656.565,149.194C656.565,140.592 658.306,133.066 661.788,126.615C665.372,120.061 670.031,115.043 675.765,111.562C681.602,108.08 687.849,106.339 694.505,106.339C701.058,106.339 707.202,108.029 712.937,111.408C718.671,114.787 723.279,119.447 726.761,125.386C730.242,131.325 732.034,137.981 732.137,145.354ZM694.505,119.856C688.77,119.856 683.804,121.495 679.605,124.771C675.407,127.946 672.642,132.912 671.311,139.671L716.623,139.671L716.623,138.442C716.111,133.015 713.653,128.56 709.25,125.079C704.949,121.597 700.034,119.856 694.505,119.856Z" style="fill:rgb(34,34,34);fill-rule:nonzero;"/>
                <path id="path836" d="M789.477,106.8C796.441,106.8 802.738,108.592 808.37,112.176C814.002,115.658 818.405,120.573 821.58,126.922C824.857,133.271 826.495,140.439 826.495,148.426C826.495,156.413 824.857,163.581 821.58,169.93C818.405,176.176 814.002,181.091 808.37,184.675C802.738,188.259 796.543,190.051 789.785,190.051C784.46,190.051 779.493,188.874 774.885,186.519C770.277,184.163 766.54,181.296 763.673,177.917L763.673,212.016C763.673,214.064 762.956,215.805 761.522,217.239C760.191,218.672 758.45,219.389 756.3,219.389C754.252,219.389 752.511,218.672 751.077,217.239C749.746,215.907 749.081,214.167 749.081,212.016L749.081,115.402C749.081,113.251 749.746,111.459 751.077,110.026C752.409,108.592 754.149,107.875 756.3,107.875C758.45,107.875 760.191,108.592 761.522,110.026C762.956,111.459 763.673,113.251 763.673,115.402L763.673,119.856C766.13,116.272 769.714,113.2 774.425,110.64C779.135,108.08 784.153,106.8 789.477,106.8ZM787.788,176.535C792.498,176.535 796.748,175.306 800.537,172.848C804.325,170.391 807.244,167.063 809.292,162.864C811.442,158.563 812.517,153.751 812.517,148.426C812.517,143.101 811.442,138.339 809.292,134.141C807.244,129.84 804.325,126.461 800.537,124.003C796.748,121.546 792.498,120.317 787.788,120.317C782.975,120.317 778.674,121.546 774.885,124.003C771.097,126.359 768.127,129.687 765.977,133.987C763.929,138.288 762.905,143.101 762.905,148.426C762.905,153.751 763.929,158.563 765.977,162.864C768.127,167.165 771.097,170.544 774.885,173.002C778.674,175.357 782.975,176.535 787.788,176.535Z" style="fill:rgb(34,34,34);fill-rule:nonzero;"/>
                <path id="path838" d="M883.37,106.339C886.033,106.339 888.337,107.056 890.282,108.49C892.228,109.821 893.201,111.511 893.201,113.559C893.201,116.016 892.535,117.911 891.204,119.242C889.975,120.471 888.439,121.085 886.596,121.085C885.674,121.085 884.292,120.778 882.449,120.163C880.298,119.447 878.609,119.088 877.38,119.088C874.205,119.088 871.082,120.215 868.01,122.467C865.041,124.618 862.583,127.639 860.637,131.53C858.794,135.319 857.873,139.568 857.873,144.279L857.873,181.296C857.873,183.344 857.156,185.085 855.722,186.519C854.391,187.952 852.65,188.669 850.5,188.669C848.349,188.669 846.609,188.003 845.277,186.672C843.946,185.239 843.281,183.447 843.281,181.296L843.281,115.555C843.281,113.507 843.946,111.767 845.277,110.333C846.711,108.899 848.452,108.183 850.5,108.183C852.65,108.183 854.391,108.899 855.722,110.333C857.156,111.767 857.873,113.507 857.873,115.555L857.873,123.389C860.125,118.371 863.505,114.327 868.01,111.255C872.516,108.08 877.636,106.442 883.37,106.339Z" style="fill:rgb(34,34,34);fill-rule:nonzero;"/>
                <path id="path840" d="M920.405,181.296C920.405,183.344 919.688,185.085 918.254,186.519C916.923,187.952 915.182,188.669 913.032,188.669C910.984,188.669 909.243,187.952 907.809,186.519C906.478,185.085 905.813,183.344 905.813,181.296L905.813,114.787C905.813,112.739 906.478,110.999 907.809,109.565C909.243,108.131 910.984,107.415 913.032,107.415C915.182,107.415 916.923,108.131 918.254,109.565C919.688,110.999 920.405,112.739 920.405,114.787L920.405,181.296ZM913.032,97.277C910.062,97.277 907.912,96.765 906.581,95.741C905.352,94.615 904.737,92.874 904.737,90.519L904.737,88.061C904.737,85.603 905.403,83.863 906.734,82.839C908.168,81.815 910.318,81.303 913.185,81.303C916.053,81.303 918.101,81.866 919.329,82.992C920.661,84.016 921.326,85.706 921.326,88.061L921.326,90.519C921.326,92.976 920.661,94.717 919.329,95.741C917.998,96.765 915.899,97.277 913.032,97.277Z" style="fill:rgb(34,34,34);fill-rule:nonzero;"/>
                <path id="path842" d="M976.401,106.339C984.491,106.339 991.198,107.619 996.523,110.179C1001.95,112.739 1004.66,116.016 1004.66,120.01C1004.66,121.751 1004.1,123.338 1002.97,124.771C1001.85,126.103 1000.41,126.768 998.673,126.768C997.342,126.768 996.267,126.563 995.448,126.154C994.731,125.744 993.707,125.079 992.376,124.157C991.761,123.543 990.789,122.826 989.457,122.007C988.229,121.392 986.488,120.88 984.235,120.471C981.982,120.061 979.934,119.856 978.091,119.856C972.766,119.856 968.056,121.085 963.96,123.543C959.864,126 956.689,129.431 954.437,133.834C952.184,138.135 951.057,142.947 951.057,148.272C951.057,153.699 952.133,158.563 954.283,162.864C956.536,167.165 959.659,170.544 963.653,173.002C967.646,175.459 972.203,176.688 977.323,176.688C982.648,176.688 986.949,175.869 990.225,174.231C990.942,173.821 991.915,173.155 993.144,172.234C994.168,171.415 995.038,170.8 995.755,170.391C996.574,169.981 997.547,169.776 998.673,169.776C1000.72,169.776 1002.31,170.442 1003.44,171.773C1004.66,173.002 1005.28,174.64 1005.28,176.688C1005.28,178.839 1003.9,180.989 1001.13,183.139C998.469,185.187 994.833,186.877 990.225,188.208C985.72,189.539 980.856,190.205 975.633,190.205C967.851,190.205 960.99,188.413 955.051,184.829C949.112,181.143 944.504,176.125 941.227,169.776C938.053,163.325 936.465,156.157 936.465,148.272C936.465,140.387 938.155,133.271 941.534,126.922C944.913,120.471 949.624,115.453 955.665,111.869C961.707,108.183 968.619,106.339 976.401,106.339Z" style="fill:rgb(34,34,34);fill-rule:nonzero;"/>
                <path id="path844" d="M1090.94,145.354C1090.83,147.197 1090.07,148.784 1088.63,150.115C1087.2,151.344 1085.51,151.959 1083.56,151.959L1029.5,151.959C1030.21,159.434 1033.03,165.424 1037.94,169.93C1042.96,174.435 1049.06,176.688 1056.22,176.688C1061.14,176.688 1065.13,175.971 1068.2,174.538C1071.28,173.104 1073.99,171.261 1076.35,169.008C1077.88,168.087 1079.37,167.626 1080.8,167.626C1082.54,167.626 1083.97,168.24 1085.1,169.469C1086.33,170.698 1086.94,172.131 1086.94,173.77C1086.94,175.92 1085.92,177.866 1083.87,179.607C1080.9,182.576 1076.96,185.085 1072.04,187.133C1067.13,189.181 1062.11,190.205 1056.99,190.205C1048.7,190.205 1041.38,188.464 1035.03,184.983C1028.78,181.501 1023.92,176.637 1020.43,170.391C1017.06,164.144 1015.37,157.079 1015.37,149.194C1015.37,140.592 1017.11,133.066 1020.59,126.615C1024.17,120.061 1028.83,115.043 1034.57,111.562C1040.4,108.08 1046.65,106.339 1053.31,106.339C1059.86,106.339 1066,108.029 1071.74,111.408C1077.47,114.787 1082.08,119.447 1085.56,125.386C1089.04,131.325 1090.83,137.981 1090.94,145.354ZM1053.31,119.856C1047.57,119.856 1042.6,121.495 1038.4,124.771C1034.21,127.946 1031.44,132.912 1030.11,139.671L1075.42,139.671L1075.42,138.442C1074.91,133.015 1072.45,128.56 1068.05,125.079C1063.75,121.597 1058.83,119.856 1053.31,119.856Z" style="fill:rgb(34,34,34);fill-rule:nonzero;"/>
            </g>
        </g>
    </g>
    <g id="Layer-1" serif:id="Layer 1" transform="matrix(1,0,0,1,-176.777,-384.158)">
        <path id="path11" d="M374.332,452.771L365.135,447.944L373.151,443.756C375.881,442.328 375.883,439.99 373.159,438.559L364.55,434.04L373.154,429.544C375.884,428.116 375.886,425.778 373.162,424.347L304.297,388.203C301.57,386.771 297.099,386.755 294.362,388.17L178.829,447.845C176.091,449.258 176.094,451.565 178.837,452.973L187.651,457.503L178.833,462.057C176.095,463.47 176.098,465.777 178.841,467.185L188.245,472.018L180.014,476.269C177.277,477.684 177.28,479.991 180.022,481.399L250.43,517.577C253.171,518.985 257.646,518.969 260.374,517.543L374.346,457.968C377.073,456.541 377.075,454.202 374.346,452.771L374.332,452.771ZM299.905,405.872L282.628,425.792C281.764,426.789 282.017,428.099 283.19,428.702L296.936,435.764C298.11,436.368 298.111,437.358 296.936,437.963L253.799,460.243C252.625,460.849 252.374,460.528 253.24,459.532L270.515,439.612C271.381,438.615 271.128,437.304 269.954,436.7L256.209,429.638C255.035,429.035 255.033,428.046 256.209,427.44L299.346,405.159C300.518,404.555 300.77,404.875 299.906,405.872L299.905,405.872Z" style="fill:rgb(34,34,34);fill-rule:nonzero;"/>
    </g>
</svg>
