<?xml version="1.0" encoding="UTF-8" standalone="no"?><!DOCTYPE svg PUBLIC "-//W3C//DTD SVG 1.1//EN" "http://www.w3.org/Graphics/SVG/1.1/DTD/svg11.dtd"><svg width="100%" height="100%" viewBox="0 0 296 296" version="1.1" xmlns="http://www.w3.org/2000/svg" xmlns:xlink="http://www.w3.org/1999/xlink" xml:space="preserve" xmlns:serif="http://www.serif.com/" style="fill-rule:evenodd;clip-rule:evenodd;stroke-linejoin:round;stroke-miterlimit:2;"><path d="M295.071,73.213l-0,144.675c-0,39.925 -32.413,72.337 -72.338,72.337l-144.675,0c-39.925,0 -72.337,-32.412 -72.337,-72.337l-0,-144.676c-0,-39.924 32.412,-72.337 72.337,-72.337l144.675,0c39.925,0 72.338,32.413 72.338,72.338Zm-47.846,20.77c-3.008,-22.116 -22.488,-39.546 -45.583,-42.925c-3.896,-0.571 -18.659,-2.646 -52.855,-2.646l-0.254,0c-34.208,0 -41.546,2.075 -45.441,2.646c-22.45,3.284 -42.955,18.946 -47.93,41.33c-2.391,11.02 -2.645,23.237 -2.2,34.445c0.634,16.075 0.755,32.121 2.23,48.13c1.02,10.633 2.8,21.183 5.325,31.566c4.729,19.179 23.87,35.142 42.62,41.654c20.08,6.792 41.671,7.917 62.363,3.255c2.275,-0.521 4.521,-1.13 6.742,-1.825c5.029,-1.58 10.92,-3.346 15.254,-6.455c0.058,-0.041 0.108,-0.1 0.141,-0.162c0.034,-0.067 0.055,-0.138 0.059,-0.213l-0,-15.512c-0.004,-0.067 -0.021,-0.133 -0.05,-0.196c-0.029,-0.062 -0.075,-0.117 -0.129,-0.158c-0.054,-0.042 -0.117,-0.071 -0.188,-0.084c-0.066,-0.016 -0.137,-0.016 -0.204,0c-13.254,3.134 -26.838,4.7 -40.467,4.675c-23.45,0 -29.758,-11.008 -31.566,-15.596c-1.45,-3.962 -2.375,-8.095 -2.742,-12.291c-0.004,-0.071 0.008,-0.142 0.037,-0.209c0.03,-0.062 0.075,-0.12 0.13,-0.162c0.054,-0.046 0.12,-0.079 0.191,-0.092c0.067,-0.016 0.142,-0.016 0.209,0.005c13.033,3.108 26.395,4.679 39.804,4.674c3.225,0 6.441,0 9.666,-0.083c13.484,-0.375 27.701,-1.058 40.967,-3.621c0.329,-0.066 0.663,-0.121 0.946,-0.204c20.929,-3.979 40.846,-16.458 42.867,-48.062c0.079,-1.246 0.266,-13.034 0.266,-14.325c0.009,-4.388 1.43,-31.13 -0.208,-47.559Zm-33.154,24.85l-0,54.95l-22.009,0l0,-53.329c0,-11.229 -4.729,-16.954 -14.345,-16.954c-10.575,0 -15.871,6.775 -15.871,20.154l-0,29.192l-21.871,-0l0,-29.192c0,-13.379 -5.308,-20.154 -15.879,-20.154c-9.563,0 -14.338,5.725 -14.338,16.954l0,53.329l-21.995,0l-0,-54.95c-0,-11.225 2.895,-20.145 8.691,-26.758c5.975,-6.596 13.817,-9.979 23.546,-9.979c11.263,-0 19.775,4.283 25.45,12.846l5.475,9.091l5.483,-9.091c5.675,-8.563 14.188,-12.846 25.434,-12.846c9.721,-0 17.558,3.383 23.554,9.979c5.787,6.608 8.679,15.525 8.675,26.758Z" style="fill:#c2b490;"/></svg>