<?xml version="1.0" encoding="UTF-8" standalone="no"?><!DOCTYPE svg PUBLIC "-//W3C//DTD SVG 1.1//EN" "http://www.w3.org/Graphics/SVG/1.1/DTD/svg11.dtd"><svg width="100%" height="100%" viewBox="0 0 296 296" version="1.1" xmlns="http://www.w3.org/2000/svg" xmlns:xlink="http://www.w3.org/1999/xlink" xml:space="preserve" xmlns:serif="http://www.serif.com/" style="fill-rule:evenodd;clip-rule:evenodd;stroke-linejoin:round;stroke-miterlimit:2;"><path d="M295.071,73.213l-0,144.675c-0,39.925 -32.417,72.337 -72.338,72.337l-144.679,0c-39.921,0 -72.337,-32.412 -72.337,-72.337l-0,-144.676c-0,-39.924 32.416,-72.337 72.337,-72.337l144.679,0c39.921,0 72.338,32.413 72.338,72.338Zm-144.675,97.087c8.971,0.158 21.887,-11.292 28.383,-16.008c51.325,-37.246 55.229,-40.492 67.063,-49.775c2.245,-1.742 3.558,-4.446 3.558,-7.309l-0,-7.35c-0,-10.25 -8.313,-18.562 -18.563,-18.562l-160.887,-0c-10.25,-0 -18.563,8.312 -18.563,18.562l0,7.35c0,2.863 1.313,5.53 3.559,7.309c11.833,9.241 15.737,12.529 67.062,49.775c6.496,4.716 19.413,16.166 28.388,16.008Zm95.254,-49.967c-8.663,6.729 -20.113,15.317 -59.558,43.975c-7.85,5.725 -21.892,18.525 -35.696,18.409c-13.734,0.079 -27.5,-12.454 -35.659,-18.409c-39.45,-28.658 -50.937,-37.204 -59.6,-43.933c-1.545,-1.2 -3.75,-0.117 -3.75,1.817l0,79.05c0,10.25 8.313,18.562 18.563,18.562l160.887,0c10.25,0 18.563,-8.312 18.563,-18.562l-0,-79.092c-0,-1.892 -2.242,-3.013 -3.75,-1.817Z" style="fill:#c2b490;"/></svg>