<?xml version="1.0" encoding="UTF-8" standalone="no"?>
<!DOCTYPE svg PUBLIC "-//W3C//DTD SVG 1.1//EN" "http://www.w3.org/Graphics/SVG/1.1/DTD/svg11.dtd">
<svg width="100%" height="100%" viewBox="0 0 662 661" version="1.1" xmlns="http://www.w3.org/2000/svg" xmlns:xlink="http://www.w3.org/1999/xlink" xml:space="preserve" xmlns:serif="http://www.serif.com/" style="fill-rule:evenodd;clip-rule:evenodd;stroke-linejoin:round;stroke-miterlimit:2;">
    <g transform="matrix(1,0,0,1,-2196,-1227)">
        <g id="Stern-umgewandelt" serif:id="Stern umgewandelt" transform="matrix(0.999202,0,0,0.999202,857.92,1.38087)">
            <rect x="1340" y="1227" width="661" height="661" style="fill:none;"/>
            <clipPath id="_clip1">
                <rect x="1340" y="1227" width="661" height="661"/>
            </clipPath>
            <g clip-path="url(#_clip1)">
                <g>
                    <g transform="matrix(1.66406,0,0,1.66406,-1398.26,-1344.58)">
                        <path d="M1861.37,1587.45C1861.37,1587.45 1894.85,1690.5 1894.85,1690.5L2003.2,1690.5C2010.98,1690.5 2017.87,1695.51 2020.27,1702.9C2022.68,1710.3 2020.04,1718.4 2013.75,1722.97C2013.75,1722.97 1926.09,1786.66 1926.09,1786.66L1959.58,1889.71C1961.98,1897.1 1959.35,1905.21 1953.06,1909.78C1946.77,1914.35 1938.25,1914.35 1931.95,1909.78C1931.95,1909.78 1844.3,1846.09 1844.3,1846.09L1756.64,1909.78C1750.35,1914.35 1741.83,1914.35 1735.54,1909.78C1729.25,1905.21 1726.61,1897.1 1729.02,1889.71C1729.02,1889.71 1762.5,1786.66 1762.5,1786.66L1674.84,1722.97C1668.55,1718.4 1665.92,1710.3 1668.32,1702.9C1670.72,1695.51 1677.62,1690.5 1685.39,1690.5C1685.39,1690.5 1793.74,1690.5 1793.74,1690.5L1827.23,1587.45C1829.63,1580.06 1836.52,1575.05 1844.3,1575.05C1852.07,1575.05 1858.97,1580.06 1861.37,1587.45Z" fill="rgba(194,180,156,0.6)"  />
                        <path d="M1861.37,1587.45C1861.37,1587.45 1894.85,1690.5 1894.85,1690.5L2003.2,1690.5C2010.98,1690.5 2017.87,1695.51 2020.27,1702.9C2022.68,1710.3 2020.04,1718.4 2013.75,1722.97C2013.75,1722.97 1926.09,1786.66 1926.09,1786.66L1959.58,1889.71C1961.98,1897.1 1959.35,1905.21 1953.06,1909.78C1946.77,1914.35 1938.25,1914.35 1931.95,1909.78C1931.95,1909.78 1844.3,1846.09 1844.3,1846.09L1756.64,1909.78C1750.35,1914.35 1741.83,1914.35 1735.54,1909.78C1729.25,1905.21 1726.61,1897.1 1729.02,1889.71C1729.02,1889.71 1762.5,1786.66 1762.5,1786.66L1674.84,1722.97C1668.55,1718.4 1665.92,1710.3 1668.32,1702.9C1670.72,1695.51 1677.62,1690.5 1685.39,1690.5C1685.39,1690.5 1793.74,1690.5 1793.74,1690.5L1827.23,1587.45C1829.63,1580.06 1836.52,1575.05 1844.3,1575.05C1852.07,1575.05 1858.97,1580.06 1861.37,1587.45Z" fill="rgba(194,180,156,0.6)" />
                    </g>
                </g>
            </g>
        </g>
    </g>
</svg>
