<?xml version="1.0" encoding="UTF-8" standalone="no"?>
<!DOCTYPE svg PUBLIC "-//W3C//DTD SVG 1.1//EN" "http://www.w3.org/Graphics/SVG/1.1/DTD/svg11.dtd">
<svg width="100%" height="100%" viewBox="0 0 661 662" version="1.1" xmlns="http://www.w3.org/2000/svg" xmlns:xlink="http://www.w3.org/1999/xlink" xml:space="preserve" xmlns:serif="http://www.serif.com/" style="fill-rule:evenodd;clip-rule:evenodd;stroke-linejoin:round;stroke-miterlimit:2;">
    <g transform="matrix(1,0,0,1,-2058,-1224)">
        <g id="favstern_leer" transform="matrix(0.999202,0,0,0.999202,719.069,-1.45377)">
            <rect x="1340" y="1227" width="661" height="661" style="fill:none;"/>
            <g transform="matrix(1.66406,0,0,1.66406,-1398.53,-1344.58)">
                <path d="M1860.89,1586.15L1900.65,1682.52L2004.58,1690.56C2011.83,1691.12 2018.03,1695.99 2020.27,1702.9C2022.52,1709.82 2020.37,1717.4 2014.84,1722.12L1935.47,1789.71L1959.95,1891.04C1961.66,1898.11 1958.94,1905.5 1953.06,1909.78C1947.17,1914.05 1939.3,1914.35 1933.11,1910.55L1844.3,1855.95L1755.49,1910.55C1749.3,1914.35 1741.42,1914.05 1735.54,1909.78C1729.66,1905.5 1726.93,1898.11 1728.64,1891.04L1753.12,1789.71L1673.75,1722.12C1668.22,1717.4 1666.07,1709.82 1668.32,1702.9C1670.57,1695.99 1676.76,1691.12 1684.01,1690.56L1787.95,1682.52L1827.7,1586.15C1830.48,1579.43 1837.03,1575.05 1844.3,1575.05C1851.57,1575.05 1858.12,1579.43 1860.89,1586.15Z" style="fill:rgb(197,179,153);"/>
            </g>
        </g>
    </g>
</svg>
