<?xml version="1.0" encoding="UTF-8"?>
<!--Generator: Apple Native CoreSVG 232.5-->
<!DOCTYPE svg
PUBLIC "-//W3C//DTD SVG 1.1//EN"
       "http://www.w3.org/Graphics/SVG/1.1/DTD/svg11.dtd">
<svg version="1.1" xmlns="http://www.w3.org/2000/svg" xmlns:xlink="http://www.w3.org/1999/xlink" width="27.3404" height="27.7266">
 <g>
  <rect height="27.7266" opacity="0" width="27.3404" x="0" y="0"/>
  <path d="M5.17997 25.5176C5.84794 26.0332 6.67997 25.875 7.58231 25.2129L13.4944 20.8652L19.4007 25.2129C20.3147 25.875 21.135 26.0332 21.8089 25.5176C22.471 25.0137 22.6058 24.1875 22.2483 23.1445L19.9104 16.207L25.8694 11.9297C26.7776 11.2852 27.1702 10.541 26.9007 9.74414C26.637 8.95312 25.887 8.57227 24.7796 8.58984L17.4729 8.64258L15.2522 1.6582C14.9065 0.585938 14.3265 0 13.4944 0C12.6624 0 12.0823 0.585938 11.7366 1.6582L9.51591 8.64258L2.20341 8.58984C1.10185 8.57227 0.351846 8.95312 0.0881739 9.73828C-0.193076 10.541 0.211221 11.2852 1.11942 11.9297L7.07841 16.207L4.74052 23.1445C4.3831 24.1875 4.52372 25.0137 5.17997 25.5176Z" fill="#c2b49c" fill-opacity="0.65"/>
 </g>
</svg>
