<?xml version="1.0" encoding="UTF-8" standalone="no"?>
<!DOCTYPE svg PUBLIC "-//W3C//DTD SVG 1.1//EN" "http://www.w3.org/Graphics/SVG/1.1/DTD/svg11.dtd">
<svg width="100%" height="100%" viewBox="0 0 351 100" version="1.1" xmlns="http://www.w3.org/2000/svg" xmlns:xlink="http://www.w3.org/1999/xlink" xml:space="preserve" xmlns:serif="http://www.serif.com/" style="fill-rule:evenodd;clip-rule:evenodd;stroke-linejoin:round;stroke-miterlimit:2;">
    <g transform="matrix(1,0,0,1,-57,-266)">
        <g transform="matrix(1.048,0,0,1.04967,0,1)">
            <g transform="matrix(1,0,0,1,0,-0.251523)">
                <g transform="matrix(1.45133,0,0,0.660568,-39.6291,-299.483)">
                    <path d="M295,908.5C295,947.962 280.395,980 262.405,980L97.595,980C79.605,980 65,947.962 65,908.5C65,869.038 79.605,837 97.595,837L262.405,837C280.395,837 295,869.038 295,908.5Z" style="fill:rgb(52,152,219);"/>
                </g>
                <g transform="matrix(0.549942,0,0,0.549066,42.832,199.531)">
                    <g transform="matrix(71.2909,0,0,71.2909,85,188)">
                        <path d="M0.622,-0.237C0.616,-0.16 0.588,-0.1 0.537,-0.056C0.486,-0.012 0.419,0.01 0.335,0.01C0.244,0.01 0.173,-0.021 0.12,-0.082C0.068,-0.144 0.042,-0.228 0.042,-0.335L0.042,-0.378C0.042,-0.447 0.054,-0.507 0.078,-0.559C0.102,-0.611 0.137,-0.651 0.181,-0.679C0.226,-0.707 0.278,-0.721 0.337,-0.721C0.419,-0.721 0.486,-0.699 0.536,-0.655C0.586,-0.611 0.615,-0.549 0.623,-0.47L0.476,-0.47C0.472,-0.516 0.46,-0.549 0.438,-0.57C0.416,-0.59 0.382,-0.601 0.337,-0.601C0.289,-0.601 0.252,-0.583 0.228,-0.548C0.204,-0.513 0.191,-0.459 0.19,-0.385L0.19,-0.332C0.19,-0.255 0.202,-0.199 0.225,-0.163C0.249,-0.128 0.285,-0.11 0.335,-0.11C0.381,-0.11 0.414,-0.12 0.437,-0.141C0.459,-0.162 0.472,-0.194 0.475,-0.237L0.622,-0.237Z" style="fill:white;fill-rule:nonzero;"/>
                    </g>
                    <g transform="matrix(71.2909,0,0,71.2909,131.645,188)">
                        <path d="M0.642,-0L0.496,-0L0.496,-0.305L0.21,-0.305L0.21,-0L0.063,-0L0.063,-0.711L0.21,-0.711L0.21,-0.423L0.496,-0.423L0.496,-0.711L0.642,-0.711L0.642,-0Z" style="fill:white;fill-rule:nonzero;"/>
                    </g>
                    <g transform="matrix(71.2909,0,0,71.2909,182.642,188)">
                        <path d="M0.465,-0.146L0.208,-0.146L0.159,-0L0.003,-0L0.268,-0.711L0.404,-0.711L0.67,-0L0.514,-0L0.465,-0.146ZM0.248,-0.265L0.425,-0.265L0.336,-0.531L0.248,-0.265Z" style="fill:white;fill-rule:nonzero;"/>
                    </g>
                    <g transform="matrix(71.2909,0,0,71.2909,230.61,188)">
                        <path d="M0.327,-0.26L0.21,-0.26L0.21,-0L0.063,-0L0.063,-0.711L0.328,-0.711C0.412,-0.711 0.476,-0.692 0.522,-0.655C0.568,-0.617 0.59,-0.564 0.59,-0.496C0.59,-0.448 0.58,-0.407 0.559,-0.375C0.538,-0.342 0.506,-0.317 0.463,-0.297L0.617,-0.007L0.617,-0L0.46,-0L0.327,-0.26ZM0.21,-0.379L0.328,-0.379C0.365,-0.379 0.393,-0.388 0.414,-0.407C0.434,-0.426 0.444,-0.451 0.444,-0.484C0.444,-0.518 0.434,-0.544 0.415,-0.563C0.396,-0.583 0.367,-0.592 0.328,-0.592L0.21,-0.592L0.21,-0.379Z" style="fill:white;fill-rule:nonzero;"/>
                    </g>
                    <g transform="matrix(71.2909,0,0,71.2909,276.107,188)">
                        <path d="M0.626,-0.09C0.6,-0.058 0.562,-0.034 0.514,-0.016C0.466,0.001 0.413,0.01 0.354,0.01C0.292,0.01 0.239,-0.004 0.192,-0.031C0.146,-0.057 0.11,-0.096 0.085,-0.147C0.059,-0.199 0.047,-0.259 0.046,-0.328L0.046,-0.376C0.046,-0.447 0.058,-0.508 0.082,-0.56C0.106,-0.612 0.14,-0.652 0.185,-0.679C0.23,-0.707 0.283,-0.721 0.344,-0.721C0.428,-0.721 0.494,-0.701 0.542,-0.66C0.589,-0.62 0.617,-0.562 0.626,-0.485L0.483,-0.485C0.477,-0.526 0.462,-0.555 0.44,-0.574C0.418,-0.593 0.387,-0.603 0.348,-0.603C0.298,-0.603 0.26,-0.584 0.234,-0.546C0.208,-0.509 0.195,-0.453 0.195,-0.379L0.195,-0.334C0.195,-0.259 0.209,-0.203 0.237,-0.165C0.266,-0.127 0.307,-0.108 0.362,-0.108C0.417,-0.108 0.456,-0.12 0.479,-0.143L0.479,-0.266L0.346,-0.266L0.346,-0.374L0.626,-0.374L0.626,-0.09Z" style="fill:white;fill-rule:nonzero;"/>
                    </g>
                    <g transform="matrix(71.2909,0,0,71.2909,324.667,188)">
                        <path d="M0.491,-0.308L0.21,-0.308L0.21,-0.118L0.54,-0.118L0.54,-0L0.063,-0L0.063,-0.711L0.539,-0.711L0.539,-0.592L0.21,-0.592L0.21,-0.423L0.491,-0.423L0.491,-0.308Z" style="fill:white;fill-rule:nonzero;"/>
                    </g>
                    <g transform="matrix(71.2909,0,0,71.2909,364.768,188)">
                        <path d="M0.21,-0.25L0.21,-0L0.063,-0L0.063,-0.711L0.341,-0.711C0.394,-0.711 0.441,-0.701 0.482,-0.682C0.522,-0.662 0.553,-0.634 0.575,-0.598C0.597,-0.562 0.608,-0.521 0.608,-0.476C0.608,-0.406 0.584,-0.351 0.536,-0.311C0.489,-0.271 0.423,-0.25 0.338,-0.25L0.21,-0.25ZM0.21,-0.369L0.341,-0.369C0.38,-0.369 0.409,-0.378 0.429,-0.396C0.45,-0.415 0.46,-0.441 0.46,-0.475C0.46,-0.509 0.45,-0.538 0.429,-0.559C0.409,-0.581 0.38,-0.592 0.344,-0.592L0.21,-0.592L0.21,-0.369Z" style="fill:white;fill-rule:nonzero;"/>
                    </g>
                    <g transform="matrix(71.2909,0,0,71.2909,410.752,188)">
                        <path d="M0.327,-0.26L0.21,-0.26L0.21,-0L0.063,-0L0.063,-0.711L0.328,-0.711C0.412,-0.711 0.476,-0.692 0.522,-0.655C0.568,-0.617 0.59,-0.564 0.59,-0.496C0.59,-0.448 0.58,-0.407 0.559,-0.375C0.538,-0.342 0.506,-0.317 0.463,-0.297L0.617,-0.007L0.617,-0L0.46,-0L0.327,-0.26ZM0.21,-0.379L0.328,-0.379C0.365,-0.379 0.393,-0.388 0.414,-0.407C0.434,-0.426 0.444,-0.451 0.444,-0.484C0.444,-0.518 0.434,-0.544 0.415,-0.563C0.396,-0.583 0.367,-0.592 0.328,-0.592L0.21,-0.592L0.21,-0.379Z" style="fill:white;fill-rule:nonzero;"/>
                    </g>
                    <g transform="matrix(71.2909,0,0,71.2909,456.249,188)">
                        <rect x="0.073" y="-0.711" width="0.146" height="0.711" style="fill:white;fill-rule:nonzero;"/>
                    </g>
                    <g transform="matrix(71.2909,0,0,71.2909,477.03,188)">
                        <path d="M0.622,-0.237C0.616,-0.16 0.588,-0.1 0.537,-0.056C0.486,-0.012 0.419,0.01 0.335,0.01C0.244,0.01 0.173,-0.021 0.12,-0.082C0.068,-0.144 0.042,-0.228 0.042,-0.335L0.042,-0.378C0.042,-0.447 0.054,-0.507 0.078,-0.559C0.102,-0.611 0.137,-0.651 0.181,-0.679C0.226,-0.707 0.278,-0.721 0.337,-0.721C0.419,-0.721 0.486,-0.699 0.536,-0.655C0.586,-0.611 0.615,-0.549 0.623,-0.47L0.476,-0.47C0.472,-0.516 0.46,-0.549 0.438,-0.57C0.416,-0.59 0.382,-0.601 0.337,-0.601C0.289,-0.601 0.252,-0.583 0.228,-0.548C0.204,-0.513 0.191,-0.459 0.19,-0.385L0.19,-0.332C0.19,-0.255 0.202,-0.199 0.225,-0.163C0.249,-0.128 0.285,-0.11 0.335,-0.11C0.381,-0.11 0.414,-0.12 0.437,-0.141C0.459,-0.162 0.472,-0.194 0.475,-0.237L0.622,-0.237Z" style="fill:white;fill-rule:nonzero;"/>
                    </g>
                    <g transform="matrix(71.2909,0,0,71.2909,523.676,188)">
                        <path d="M0.491,-0.308L0.21,-0.308L0.21,-0.118L0.54,-0.118L0.54,-0L0.063,-0L0.063,-0.711L0.539,-0.711L0.539,-0.592L0.21,-0.592L0.21,-0.423L0.491,-0.423L0.491,-0.308Z" style="fill:white;fill-rule:nonzero;"/>
                    </g>
                </g>
                <g transform="matrix(0.546144,0,0,0.545274,39.7109,224.036)">
                    <g transform="matrix(36.4369,0,0,36.4369,95.6126,188)">
                        <path d="M0.47,-0.166L0.195,-0.166L0.137,-0L0.009,-0L0.277,-0.711L0.388,-0.711L0.657,-0L0.528,-0L0.47,-0.166ZM0.229,-0.265L0.436,-0.265L0.333,-0.56L0.229,-0.265Z" style="fill:white;fill-rule:nonzero;"/>
                    </g>
                    <g transform="matrix(36.4369,0,0,36.4369,119.862,188)">
                        <path d="M0.196,-0.099L0.519,-0.099L0.519,-0L0.072,-0L0.072,-0.711L0.196,-0.711L0.196,-0.099Z" style="fill:white;fill-rule:nonzero;"/>
                    </g>
                    <g transform="matrix(36.4369,0,0,36.4369,139.575,188)">
                        <path d="M0.196,-0.099L0.519,-0.099L0.519,-0L0.072,-0L0.072,-0.711L0.196,-0.711L0.196,-0.099Z" style="fill:white;fill-rule:nonzero;"/>
                    </g>
                    <g transform="matrix(36.4369,0,0,36.4369,159.288,188)">
                        <path d="M0.488,-0.317L0.196,-0.317L0.196,-0.099L0.537,-0.099L0.537,-0L0.072,-0L0.072,-0.711L0.534,-0.711L0.534,-0.611L0.196,-0.611L0.196,-0.415L0.488,-0.415L0.488,-0.317Z" style="fill:white;fill-rule:nonzero;"/>
                    </g>
                    <g transform="matrix(36.4369,0,0,36.4369,188.964,188)">
                        <path d="M0.196,-0.264L0.196,-0L0.072,-0L0.072,-0.711L0.344,-0.711C0.424,-0.711 0.487,-0.69 0.533,-0.649C0.58,-0.608 0.604,-0.553 0.604,-0.485C0.604,-0.415 0.581,-0.361 0.535,-0.322C0.489,-0.284 0.425,-0.264 0.343,-0.264L0.196,-0.264ZM0.196,-0.363L0.344,-0.363C0.388,-0.363 0.422,-0.374 0.445,-0.394C0.468,-0.415 0.479,-0.445 0.479,-0.484C0.479,-0.522 0.468,-0.553 0.444,-0.576C0.421,-0.599 0.389,-0.611 0.348,-0.611L0.196,-0.611L0.196,-0.363Z" style="fill:white;fill-rule:nonzero;"/>
                    </g>
                    <g transform="matrix(36.4369,0,0,36.4369,212.253,188)">
                        <path d="M0.333,-0.274L0.196,-0.274L0.196,-0L0.072,-0L0.072,-0.711L0.322,-0.711C0.404,-0.711 0.468,-0.693 0.512,-0.656C0.557,-0.619 0.579,-0.566 0.579,-0.496C0.579,-0.449 0.568,-0.409 0.545,-0.377C0.522,-0.345 0.49,-0.32 0.449,-0.303L0.608,-0.006L0.608,-0L0.476,-0L0.333,-0.274ZM0.196,-0.373L0.323,-0.373C0.364,-0.373 0.397,-0.384 0.42,-0.405C0.444,-0.426 0.456,-0.454 0.456,-0.491C0.456,-0.529 0.445,-0.558 0.423,-0.579C0.401,-0.6 0.369,-0.611 0.326,-0.611L0.196,-0.611L0.196,-0.373Z" style="fill:white;fill-rule:nonzero;"/>
                    </g>
                    <g transform="matrix(36.4369,0,0,36.4369,234.991,188)">
                        <path d="M0.488,-0.317L0.196,-0.317L0.196,-0.099L0.537,-0.099L0.537,-0L0.072,-0L0.072,-0.711L0.534,-0.711L0.534,-0.611L0.196,-0.611L0.196,-0.415L0.488,-0.415L0.488,-0.317Z" style="fill:white;fill-rule:nonzero;"/>
                    </g>
                    <g transform="matrix(36.4369,0,0,36.4369,255.593,188)">
                        <rect x="0.08" y="-0.711" width="0.123" height="0.711" style="fill:white;fill-rule:nonzero;"/>
                    </g>
                    <g transform="matrix(36.4369,0,0,36.4369,265.877,188)">
                        <path d="M0.444,-0.183C0.444,-0.214 0.433,-0.238 0.411,-0.255C0.389,-0.272 0.349,-0.289 0.292,-0.307C0.235,-0.324 0.189,-0.343 0.155,-0.364C0.09,-0.405 0.058,-0.458 0.058,-0.523C0.058,-0.581 0.081,-0.628 0.128,-0.665C0.175,-0.702 0.236,-0.721 0.31,-0.721C0.36,-0.721 0.404,-0.712 0.442,-0.693C0.481,-0.675 0.512,-0.649 0.534,-0.615C0.556,-0.582 0.567,-0.544 0.567,-0.503L0.444,-0.503C0.444,-0.541 0.432,-0.57 0.409,-0.591C0.386,-0.612 0.352,-0.622 0.309,-0.622C0.269,-0.622 0.237,-0.613 0.215,-0.596C0.193,-0.579 0.182,-0.555 0.182,-0.524C0.182,-0.498 0.194,-0.476 0.218,-0.459C0.242,-0.441 0.282,-0.424 0.337,-0.408C0.392,-0.392 0.437,-0.373 0.47,-0.352C0.504,-0.331 0.528,-0.307 0.544,-0.28C0.56,-0.252 0.567,-0.221 0.567,-0.184C0.567,-0.125 0.545,-0.078 0.499,-0.043C0.454,-0.008 0.392,0.01 0.314,0.01C0.263,0.01 0.216,0 0.173,-0.019C0.129,-0.038 0.096,-0.064 0.072,-0.098C0.048,-0.131 0.036,-0.17 0.036,-0.215L0.16,-0.215C0.16,-0.174 0.173,-0.143 0.2,-0.121C0.226,-0.099 0.265,-0.088 0.314,-0.088C0.357,-0.088 0.39,-0.097 0.411,-0.114C0.433,-0.131 0.444,-0.154 0.444,-0.183Z" style="fill:white;fill-rule:nonzero;"/>
                    </g>
                    <g transform="matrix(36.4369,0,0,36.4369,287.867,188)">
                        <path d="M0.488,-0.317L0.196,-0.317L0.196,-0.099L0.537,-0.099L0.537,-0L0.072,-0L0.072,-0.711L0.534,-0.711L0.534,-0.611L0.196,-0.611L0.196,-0.415L0.488,-0.415L0.488,-0.317Z" style="fill:white;fill-rule:nonzero;"/>
                    </g>
                    <g transform="matrix(36.4369,0,0,36.4369,317.543,188)">
                        <path d="M0.042,-0.192C0.042,-0.225 0.051,-0.255 0.069,-0.282C0.087,-0.31 0.122,-0.343 0.175,-0.38C0.147,-0.415 0.128,-0.445 0.117,-0.469C0.106,-0.494 0.101,-0.517 0.101,-0.54C0.101,-0.596 0.118,-0.64 0.151,-0.672C0.185,-0.705 0.231,-0.721 0.288,-0.721C0.34,-0.721 0.382,-0.705 0.415,-0.675C0.448,-0.645 0.465,-0.607 0.465,-0.562C0.465,-0.532 0.457,-0.505 0.442,-0.48C0.427,-0.455 0.403,-0.431 0.369,-0.406L0.32,-0.371L0.458,-0.208C0.477,-0.248 0.487,-0.291 0.487,-0.339L0.59,-0.339C0.59,-0.251 0.57,-0.18 0.529,-0.124L0.633,-0L0.496,-0L0.456,-0.047C0.405,-0.009 0.344,0.01 0.274,0.01C0.204,0.01 0.147,-0.009 0.105,-0.046C0.063,-0.083 0.042,-0.132 0.042,-0.192ZM0.277,-0.085C0.317,-0.085 0.355,-0.098 0.39,-0.125L0.234,-0.308L0.219,-0.297C0.18,-0.268 0.161,-0.234 0.161,-0.196C0.161,-0.163 0.171,-0.136 0.192,-0.116C0.214,-0.095 0.242,-0.085 0.277,-0.085ZM0.212,-0.543C0.212,-0.516 0.229,-0.481 0.262,-0.44L0.316,-0.477L0.332,-0.489C0.352,-0.507 0.362,-0.53 0.362,-0.558C0.362,-0.577 0.355,-0.593 0.341,-0.606C0.327,-0.619 0.309,-0.625 0.288,-0.625C0.264,-0.625 0.246,-0.618 0.232,-0.602C0.219,-0.586 0.212,-0.567 0.212,-0.543Z" style="fill:white;fill-rule:nonzero;"/>
                    </g>
                    <g transform="matrix(36.4369,0,0,36.4369,349.906,188)">
                        <path d="M0.196,-0.099L0.519,-0.099L0.519,-0L0.072,-0L0.072,-0.711L0.196,-0.711L0.196,-0.099Z" style="fill:white;fill-rule:nonzero;"/>
                    </g>
                    <g transform="matrix(36.4369,0,0,36.4369,369.957,188)">
                        <path d="M0.47,-0.166L0.195,-0.166L0.137,-0L0.009,-0L0.277,-0.711L0.388,-0.711L0.657,-0L0.528,-0L0.47,-0.166ZM0.229,-0.265L0.436,-0.265L0.333,-0.56L0.229,-0.265Z" style="fill:white;fill-rule:nonzero;"/>
                    </g>
                    <g transform="matrix(36.4369,0,0,36.4369,394.206,188)">
                        <path d="M0.072,-0L0.072,-0.711L0.282,-0.711C0.345,-0.711 0.401,-0.697 0.449,-0.669C0.498,-0.641 0.536,-0.601 0.563,-0.55C0.589,-0.498 0.603,-0.439 0.603,-0.373L0.603,-0.337C0.603,-0.27 0.589,-0.211 0.562,-0.16C0.535,-0.109 0.497,-0.069 0.448,-0.042C0.398,-0.014 0.341,-0 0.277,-0L0.072,-0ZM0.196,-0.611L0.196,-0.099L0.276,-0.099C0.341,-0.099 0.391,-0.119 0.426,-0.159C0.46,-0.2 0.478,-0.258 0.479,-0.334L0.479,-0.374C0.479,-0.451 0.462,-0.51 0.428,-0.55C0.395,-0.591 0.346,-0.611 0.282,-0.611L0.196,-0.611Z" style="fill:white;fill-rule:nonzero;"/>
                    </g>
                    <g transform="matrix(36.4369,0,0,36.4369,418.011,188)">
                        <path d="M0.488,-0.317L0.196,-0.317L0.196,-0.099L0.537,-0.099L0.537,-0L0.072,-0L0.072,-0.711L0.534,-0.711L0.534,-0.611L0.196,-0.611L0.196,-0.415L0.488,-0.415L0.488,-0.317Z" style="fill:white;fill-rule:nonzero;"/>
                    </g>
                    <g transform="matrix(36.4369,0,0,36.4369,438.614,188)">
                        <path d="M0.444,-0.183C0.444,-0.214 0.433,-0.238 0.411,-0.255C0.389,-0.272 0.349,-0.289 0.292,-0.307C0.235,-0.324 0.189,-0.343 0.155,-0.364C0.09,-0.405 0.058,-0.458 0.058,-0.523C0.058,-0.581 0.081,-0.628 0.128,-0.665C0.175,-0.702 0.236,-0.721 0.31,-0.721C0.36,-0.721 0.404,-0.712 0.442,-0.693C0.481,-0.675 0.512,-0.649 0.534,-0.615C0.556,-0.582 0.567,-0.544 0.567,-0.503L0.444,-0.503C0.444,-0.541 0.432,-0.57 0.409,-0.591C0.386,-0.612 0.352,-0.622 0.309,-0.622C0.269,-0.622 0.237,-0.613 0.215,-0.596C0.193,-0.579 0.182,-0.555 0.182,-0.524C0.182,-0.498 0.194,-0.476 0.218,-0.459C0.242,-0.441 0.282,-0.424 0.337,-0.408C0.392,-0.392 0.437,-0.373 0.47,-0.352C0.504,-0.331 0.528,-0.307 0.544,-0.28C0.56,-0.252 0.567,-0.221 0.567,-0.184C0.567,-0.125 0.545,-0.078 0.499,-0.043C0.454,-0.008 0.392,0.01 0.314,0.01C0.263,0.01 0.216,0 0.173,-0.019C0.129,-0.038 0.096,-0.064 0.072,-0.098C0.048,-0.131 0.036,-0.17 0.036,-0.215L0.16,-0.215C0.16,-0.174 0.173,-0.143 0.2,-0.121C0.226,-0.099 0.265,-0.088 0.314,-0.088C0.357,-0.088 0.39,-0.097 0.411,-0.114C0.433,-0.131 0.444,-0.154 0.444,-0.183Z" style="fill:white;fill-rule:nonzero;"/>
                    </g>
                    <g transform="matrix(36.4369,0,0,36.4369,460.604,188)">
                        <path d="M0.47,-0.166L0.195,-0.166L0.137,-0L0.009,-0L0.277,-0.711L0.388,-0.711L0.657,-0L0.528,-0L0.47,-0.166ZM0.229,-0.265L0.436,-0.265L0.333,-0.56L0.229,-0.265ZM0.162,-0.818C0.162,-0.835 0.167,-0.848 0.178,-0.859C0.189,-0.87 0.204,-0.876 0.223,-0.876C0.242,-0.876 0.257,-0.87 0.269,-0.859C0.28,-0.848 0.285,-0.835 0.285,-0.818C0.285,-0.802 0.28,-0.788 0.269,-0.777C0.257,-0.766 0.242,-0.761 0.223,-0.761C0.204,-0.761 0.189,-0.766 0.178,-0.777C0.167,-0.788 0.162,-0.802 0.162,-0.818ZM0.385,-0.818C0.385,-0.834 0.39,-0.848 0.401,-0.859C0.412,-0.87 0.427,-0.875 0.446,-0.875C0.465,-0.875 0.481,-0.87 0.492,-0.859C0.503,-0.848 0.508,-0.834 0.508,-0.818C0.508,-0.802 0.503,-0.788 0.492,-0.777C0.481,-0.766 0.465,-0.76 0.446,-0.76C0.427,-0.76 0.412,-0.766 0.401,-0.777C0.39,-0.788 0.385,-0.802 0.385,-0.818Z" style="fill:white;fill-rule:nonzero;"/>
                    </g>
                    <g transform="matrix(36.4369,0,0,36.4369,484.551,188)">
                        <path d="M0.592,-0.711L0.592,-0.236C0.592,-0.16 0.568,-0.101 0.52,-0.056C0.471,-0.012 0.407,0.01 0.327,0.01C0.245,0.01 0.181,-0.012 0.133,-0.055C0.085,-0.099 0.061,-0.159 0.061,-0.236L0.061,-0.711L0.184,-0.711L0.184,-0.235C0.184,-0.188 0.196,-0.152 0.22,-0.126C0.244,-0.101 0.28,-0.089 0.327,-0.089C0.422,-0.089 0.469,-0.139 0.469,-0.239L0.469,-0.711L0.592,-0.711Z" style="fill:white;fill-rule:nonzero;"/>
                    </g>
                    <g transform="matrix(36.4369,0,0,36.4369,508.303,188)">
                        <path d="M0.196,-0.099L0.519,-0.099L0.519,-0L0.072,-0L0.072,-0.711L0.196,-0.711L0.196,-0.099Z" style="fill:white;fill-rule:nonzero;"/>
                    </g>
                    <g transform="matrix(36.4369,0,0,36.4369,528.016,188)">
                        <path d="M0.488,-0.317L0.196,-0.317L0.196,-0.099L0.537,-0.099L0.537,-0L0.072,-0L0.072,-0.711L0.534,-0.711L0.534,-0.611L0.196,-0.611L0.196,-0.415L0.488,-0.415L0.488,-0.317Z" style="fill:white;fill-rule:nonzero;"/>
                    </g>
                    <g transform="matrix(36.4369,0,0,36.4369,548.618,188)">
                        <path d="M0.636,-0L0.513,-0L0.196,-0.504L0.196,-0L0.072,-0L0.072,-0.711L0.196,-0.711L0.514,-0.205L0.514,-0.711L0.636,-0.711L0.636,-0Z" style="fill:white;fill-rule:nonzero;"/>
                    </g>
                </g>
            </g>
        </g>
    </g>
</svg>
