<?xml version="1.0" encoding="UTF-8" standalone="no"?><!DOCTYPE svg PUBLIC "-//W3C//DTD SVG 1.1//EN" "http://www.w3.org/Graphics/SVG/1.1/DTD/svg11.dtd"><svg width="100%" height="100%" viewBox="0 0 4297 572" version="1.1" xmlns="http://www.w3.org/2000/svg" xmlns:xlink="http://www.w3.org/1999/xlink" xml:space="preserve" xmlns:serif="http://www.serif.com/" style="fill-rule:evenodd;clip-rule:evenodd;stroke-linejoin:round;stroke-miterlimit:2;"><g id="Layer-1" serif:id="Layer 1"><path d="M823.145,296.762l-38.32,-20.11l33.4,-17.453c11.37,-5.95 11.383,-15.69 0.033,-21.654l-35.875,-18.826l35.854,-18.737c11.375,-5.95 11.383,-15.69 0.033,-21.653l-286.941,-150.6c-11.363,-5.962 -29.988,-6.029 -41.392,-0.137l-481.391,248.647c-11.407,5.886 -11.393,15.5 0.033,21.366l36.727,18.874l-36.743,18.977c-11.407,5.887 -11.394,15.5 0.033,21.367l39.187,20.136l-34.297,17.714c-11.407,5.893 -11.393,15.506 0.033,21.373l293.367,150.744c11.42,5.866 30.067,5.8 41.434,-0.144l474.88,-248.23c11.362,-5.944 11.375,-15.69 -0,-21.654l-0.055,0Zm-310.116,-195.412l-71.988,83.002c-3.6,4.153 -2.546,9.61 2.346,12.123l57.271,29.427c4.892,2.513 4.9,6.64 -0,9.16l-179.735,92.834c-4.89,2.526 -5.937,1.19 -2.33,-2.964l71.98,-83c3.607,-4.153 2.553,-9.617 -2.337,-12.13l-57.273,-29.427c-4.89,-2.513 -4.897,-6.633 -0,-9.16l179.741,-92.832c4.883,-2.521 5.933,-1.183 2.329,2.967l-0.004,-0Z" style="fill:#000016;fill-rule:nonzero;"/><path d="M1133.73,450.228c38.592,-0 74.608,-14.15 102.267,-34.089c14.791,-12.864 17.362,-33.445 7.075,-47.595c-12.867,-15.437 -34.092,-18.009 -48.242,-7.075c-16.721,12.22 -37.946,20.581 -61.1,20.581c-52.1,0 -95.192,-42.45 -95.192,-91.975c0,-49.525 43.092,-92.619 95.192,-92.619c23.796,0 44.379,8.362 61.1,20.582c14.796,11.578 35.375,9.005 48.242,-6.431c10.287,-14.151 7.716,-36.019 -7.075,-47.596c-27.659,-21.223 -63.675,-35.373 -102.267,-35.373c-88.763,0.641 -163.371,72.035 -163.371,161.437c0,88.116 74.608,160.153 163.371,160.153Z" style="fill-rule:nonzero;"/><path d="M1380.07,269.493c0.646,-37.948 30.875,-68.82 68.821,-69.464c38.592,0.644 69.467,31.516 69.467,69.464l-0,145.36c-0,19.939 15.433,35.375 35.375,35.375c19.937,-0 35.375,-15.436 35.375,-35.375l-0,-145.36c-0,-77.182 -62.392,-140.855 -140.217,-140.855c-25.083,-0 -48.237,7.716 -68.821,18.65l0,-111.913c0,-19.942 -16.079,-35.375 -36.016,-35.375c-19.296,-0 -35.375,15.433 -35.375,35.375l-0,379.478c-0,3.216 0.641,6.432 1.287,9.005c4.5,14.793 18.009,26.37 34.088,26.37c19.937,-0 36.016,-15.436 36.016,-35.375l0,-145.36Z" style="fill-rule:nonzero;"/><path d="M1949.29,163.368c0,-19.297 -15.437,-34.73 -34.091,-34.73c-16.721,-0 -29.584,12.216 -33.446,28.3c-24.438,-17.367 -53.384,-28.3 -85.542,-28.3c-43.737,-0 -81.683,18.65 -109.342,48.237c-27.658,28.943 -43.737,68.82 -43.737,113.2c-0,43.737 16.079,83.614 43.737,113.2c27.659,28.944 65.605,46.953 109.342,46.953c32.158,-0 61.104,-10.291 85.542,-27.657c3.862,15.437 16.725,27.657 33.446,27.657c18.654,-0 34.091,-15.436 34.091,-34.089l0,-252.771Zm-93.262,192.955c-15.438,16.08 -37.304,25.085 -59.817,25.085c-23.154,-0 -45.021,-9.005 -59.817,-25.085c-15.437,-16.723 -24.441,-39.877 -24.441,-66.248c-0,-27.014 9.004,-50.168 24.441,-66.248c14.796,-17.366 36.663,-26.371 59.817,-26.371c22.513,0 44.379,9.005 59.817,26.371c15.437,16.08 25.083,39.234 25.083,66.248c0,26.371 -9.646,49.525 -25.083,66.248Z" style="fill-rule:nonzero;"/><path d="M2187.91,129.279c-32.158,-0.641 -59.817,10.934 -81.042,25.084c-4.504,3.216 -9.645,8.362 -13.508,12.864l0,-4.502c0,-18.654 -16.079,-33.446 -35.375,-33.446c-18.65,0 -34.087,14.792 -34.087,33.446l-0,253.414c-0,18.653 15.437,34.089 34.087,34.089c19.296,-0 35.375,-15.436 35.375,-34.089l0,-122.205c3.217,-9.004 10.938,-33.445 26.371,-54.027c7.721,-12.221 17.367,-23.155 29.587,-30.873c10.934,-8.362 23.8,-12.221 38.592,-12.221c19.296,0 34.088,-16.079 34.088,-34.088c-0,-18.654 -14.792,-33.446 -34.088,-33.446Z" style="fill-rule:nonzero;"/><path d="M2542.31,410.994l-0,-248.269c-0,-18.654 -14.796,-34.088 -34.092,-34.088c-16.721,0 -30.871,11.576 -34.087,27.013c-23.154,-16.725 -52.742,-27.013 -86.188,-27.013c-42.45,0 -81.683,18.65 -109.341,47.594c-27.655,30.23 -45.021,70.107 -45.021,114.487c-0,45.023 17.366,84.901 45.021,113.201c27.658,30.229 66.891,48.882 109.341,48.882c31.517,-0 61.104,-9.648 84.259,-25.728c-8.363,39.235 -42.45,68.821 -84.259,68.821c-13.504,0 -25.725,-3.216 -36.658,-9.004c-18.013,-7.719 -37.95,-1.287 -46.313,16.079c-9.004,17.366 -1.283,38.591 15.438,46.31c19.937,10.291 43.737,16.079 67.533,16.079c85.546,0 154.367,-70.107 154.367,-154.364Zm-93.263,-54.028c-16.725,17.366 -36.662,26.371 -61.104,26.371c-22.508,0 -43.737,-9.005 -59.171,-26.371c-15.437,-14.793 -25.729,-39.234 -25.729,-66.248c0,-25.727 10.292,-50.168 25.729,-65.605c15.434,-18.009 36.663,-27.657 59.171,-27.657c24.442,0 44.379,9.648 61.104,27.657c14.15,15.437 24.442,39.878 24.442,65.605c0,27.014 -10.292,51.455 -24.442,66.248Z" style="fill-rule:nonzero;"/><path d="M2762.28,450.228c45.666,-0 83.616,-13.507 115.133,-42.45c14.792,-13.507 8.358,-32.803 -0,-41.807c-8.363,-10.291 -34.733,-12.221 -48.242,1.929c-16.079,12.221 -43.737,18.01 -66.891,16.08c-22.509,-1.93 -48.238,-13.507 -61.746,-28.943c-11.575,-10.934 -18.65,-27.657 -21.867,-42.45l204.533,-0c18.009,-0 31.517,-10.292 33.446,-25.728c0.642,-1.286 0.642,-4.502 0.642,-5.789l-0,-3.215c-5.146,-86.83 -71.392,-149.217 -155.008,-149.217c-88.117,-0 -156.292,73.321 -156.938,160.794c0.646,87.473 68.821,160.153 156.938,160.796Zm-0,-260.49c55.958,4.502 88.762,42.45 95.191,68.178l-182.021,-0c5.146,-26.371 32.159,-65.605 86.83,-68.178Z" style="fill-rule:nonzero;"/><path d="M3002.18,571.147c20.583,0 36.662,-16.723 36.662,-34.732l0,-113.201c23.155,16.723 54.03,26.371 86.188,26.371c85.542,0 155.65,-71.394 155.65,-159.51c-0,-88.116 -70.108,-161.438 -155.65,-161.438c-32.804,0 -63.675,10.934 -87.475,26.367c-2.571,-14.15 -17.367,-26.367 -35.375,-26.367c-18.65,0 -34.088,15.434 -34.088,34.088l0,373.69c0,18.009 15.438,34.732 34.088,34.732Zm61.746,-346.034c16.079,-17.365 37.304,-26.37 61.104,-26.37c21.867,-0 43.737,9.005 60.458,26.37c14.796,16.723 25.084,39.878 25.084,64.962c-0,25.084 -10.288,49.525 -25.084,64.319c-16.721,18.009 -38.591,27.014 -60.458,27.014c-23.8,-0 -45.025,-9.005 -61.104,-27.014c-16.721,-14.794 -25.084,-39.235 -25.084,-64.319c0,-25.084 8.363,-48.239 25.084,-64.962Z" style="fill-rule:nonzero;"/><path d="M3505.15,129.279c-32.159,-0.641 -59.817,10.934 -81.042,25.084c-4.5,3.216 -9.646,8.362 -13.504,12.864l-0,-4.502c-0,-18.654 -16.079,-33.446 -35.375,-33.446c-18.654,0 -34.092,14.792 -34.092,33.446l0,253.414c0,18.653 15.438,34.089 34.092,34.089c19.296,-0 35.375,-15.436 35.375,-34.089l-0,-122.205c3.212,-9.004 10.933,-33.445 26.371,-54.027c7.716,-12.221 17.362,-23.155 29.583,-30.873c10.938,-8.362 23.8,-12.221 38.592,-12.221c19.296,0 34.091,-16.079 34.091,-34.088c0,-18.654 -14.795,-33.446 -34.091,-33.446Z" style="fill-rule:nonzero;"/><path d="M3607.42,129.279c-19.295,0 -34.733,14.792 -34.733,35.375l0,250.842c0,19.296 15.438,34.732 34.733,34.732c19.938,-0 34.734,-15.436 34.734,-34.732l-0,-250.842c-0,-20.583 -14.796,-35.375 -34.734,-35.375Zm34.734,-94.55c-0,-19.296 -14.796,-34.729 -34.734,-34.729c-19.295,0 -34.733,15.433 -34.733,34.729l0,13.509c0,19.295 15.438,35.375 34.733,35.375c19.938,-0 34.734,-16.08 34.734,-35.375l-0,-13.509Z" style="fill-rule:nonzero;"/><path d="M3842.18,450.228c38.592,-0 74.608,-14.15 102.267,-34.089c14.791,-12.864 17.366,-33.445 7.075,-47.595c-12.863,-15.437 -34.088,-18.009 -48.238,-7.075c-16.725,12.22 -37.95,20.581 -61.104,20.581c-52.096,0 -95.192,-42.45 -95.192,-91.975c0,-49.525 43.096,-92.619 95.192,-92.619c23.8,0 44.379,8.362 61.104,20.582c14.792,11.578 35.375,9.005 48.238,-6.431c10.291,-14.151 7.716,-36.019 -7.075,-47.596c-27.659,-21.223 -63.675,-35.373 -102.267,-35.373c-88.758,0.641 -163.367,72.035 -163.367,161.437c0,88.116 74.609,160.153 163.367,160.153Z" style="fill-rule:nonzero;"/><path d="M4141.91,450.228c45.675,-0 83.633,-13.507 115.133,-42.45c14.792,-13.507 8.375,-32.803 0,-41.807c-8.375,-10.291 -34.75,-12.221 -48.25,1.929c-16.083,12.221 -43.729,18.01 -66.883,16.08c-22.513,-1.93 -48.238,-13.507 -61.746,-28.943c-11.579,-10.934 -18.654,-27.657 -21.867,-42.45l204.538,-0c18,-0 31.5,-10.292 33.458,-25.728c0.625,-1.286 0.625,-4.502 0.625,-5.789l0,-3.215c-5.166,-86.83 -71.375,-149.217 -155.008,-149.217c-88.117,-0 -156.296,73.321 -156.938,160.794c0.642,87.473 68.821,160.153 156.938,160.796Zm-0,-260.49c55.967,4.502 88.758,42.45 95.175,68.178l-182.004,-0c5.146,-26.371 32.158,-65.605 86.829,-68.178Z" style="fill-rule:nonzero;"/></g></svg>