<?xml version="1.0" encoding="UTF-8" standalone="no"?>
<!DOCTYPE svg PUBLIC "-//W3C//DTD SVG 1.1//EN" "http://www.w3.org/Graphics/SVG/1.1/DTD/svg11.dtd">
<svg width="100%" height="100%" viewBox="0 0 43 42" version="1.1" xmlns="http://www.w3.org/2000/svg" xmlns:xlink="http://www.w3.org/1999/xlink" xml:space="preserve" xmlns:serif="http://www.serif.com/" style="fill-rule:evenodd;clip-rule:evenodd;stroke-linejoin:round;stroke-miterlimit:2;">
    <g>
        <rect x="0" y="0" width="42.168" height="41.777" style="fill-opacity:0;"/>
        <path d="M18.926,41.758L22.871,41.758C24.375,41.758 25.527,40.84 25.879,39.395L26.719,35.742L27.344,35.527L30.527,37.481C31.797,38.281 33.262,38.086 34.336,37.012L37.07,34.297C38.145,33.223 38.34,31.738 37.539,30.488L35.547,27.324L35.781,26.738L39.434,25.879C40.859,25.527 41.797,24.356 41.797,22.871L41.797,19.004C41.797,17.52 40.879,16.348 39.434,15.996L35.82,15.117L35.566,14.492L37.559,11.328C38.359,10.078 38.164,8.613 37.09,7.52L34.356,4.785C33.301,3.73 31.836,3.535 30.566,4.316L27.383,6.27L26.719,6.016L25.879,2.363C25.527,0.918 24.375,0 22.871,0L18.926,0C17.422,0 16.27,0.918 15.918,2.363L15.059,6.016L14.395,6.27L11.23,4.316C9.961,3.535 8.477,3.73 7.422,4.785L4.707,7.52C3.633,8.613 3.418,10.078 4.238,11.328L6.211,14.492L5.977,15.117L2.363,15.996C0.918,16.348 0,17.52 0,19.004L0,22.871C0,24.356 0.938,25.527 2.363,25.879L6.016,26.738L6.23,27.324L4.258,30.488C3.438,31.738 3.652,33.223 4.727,34.297L7.441,37.012C8.516,38.086 10,38.281 11.27,37.481L14.434,35.527L15.059,35.742L15.918,39.395C16.27,40.84 17.422,41.758 18.926,41.758ZM19.238,38.711C18.906,38.711 18.731,38.574 18.672,38.262L17.5,33.418C16.309,33.125 15.195,32.656 14.355,32.129L10.098,34.746C9.863,34.922 9.609,34.883 9.375,34.648L7.07,32.344C6.855,32.129 6.836,31.895 6.992,31.621L9.609,27.402C9.16,26.582 8.652,25.469 8.34,24.277L3.496,23.125C3.184,23.066 3.047,22.891 3.047,22.559L3.047,19.297C3.047,18.945 3.164,18.789 3.496,18.731L8.32,17.559C8.633,16.289 9.219,15.137 9.57,14.414L6.973,10.195C6.797,9.902 6.816,9.668 7.031,9.434L9.355,7.168C9.59,6.934 9.805,6.895 10.098,7.07L14.316,9.629C15.156,9.16 16.348,8.672 17.52,8.34L18.672,3.496C18.731,3.184 18.906,3.047 19.238,3.047L22.559,3.047C22.891,3.047 23.066,3.184 23.106,3.496L24.297,8.379C25.508,8.691 26.563,9.18 27.441,9.648L31.68,7.07C31.992,6.895 32.188,6.934 32.441,7.168L34.746,9.434C34.981,9.668 34.981,9.902 34.805,10.195L32.207,14.414C32.578,15.137 33.145,16.289 33.457,17.559L38.301,18.731C38.613,18.789 38.75,18.945 38.75,19.297L38.75,22.559C38.75,22.891 38.594,23.066 38.301,23.125L33.438,24.277C33.125,25.469 32.637,26.582 32.168,27.402L34.785,31.621C34.941,31.895 34.941,32.129 34.707,32.344L32.422,34.648C32.168,34.883 31.934,34.922 31.68,34.746L27.422,32.129C26.582,32.656 25.488,33.125 24.297,33.418L23.106,38.262C23.066,38.574 22.891,38.711 22.559,38.711L19.238,38.711ZM20.898,28.34C24.981,28.34 28.34,24.981 28.34,20.879C28.34,16.816 24.981,13.457 20.898,13.457C16.816,13.457 13.438,16.816 13.438,20.879C13.438,24.961 16.797,28.34 20.898,28.34ZM20.898,25.313C18.477,25.313 16.484,23.32 16.484,20.879C16.484,18.477 18.477,16.484 20.898,16.484C23.281,16.484 25.273,18.477 25.273,20.879C25.273,23.301 23.281,25.313 20.898,25.313Z" style="fill-opacity:0.85;fill-rule:nonzero;"/>
    </g>
</svg>
