<?xml version="1.0" standalone="no"?>
<!DOCTYPE svg PUBLIC "-//W3C//DTD SVG 20010904//EN"
 "http://www.w3.org/TR/2001/REC-SVG-20010904/DTD/svg10.dtd">
<svg version="1.0" xmlns="http://www.w3.org/2000/svg"
 width="300.000000pt" height="300.000000pt" viewBox="0 0 300.000000 300.000000"
 preserveAspectRatio="xMidYMid meet">
<metadata>
Created by potrace 1.10, written by Peter Selinger 2001-2011
</metadata>
<g transform="translate(0.000000,300.000000) scale(0.050000,-0.050000)"
fill="#000000" stroke="none">
<path d="M2470 5949 c-1965 -332 -3049 -2537 -2129 -4330 387 -753 1137 -1345
1933 -1526 192 -44 208 -42 122 17 -41 28 -98 50 -127 50 -29 0 -74 17 -101
38 -27 21 -65 34 -85 28 -29 -7 -40 5 -49 50 -7 32 -27 65 -45 72 -24 9 -30 4
-22 -17 7 -19 1 -25 -18 -18 -16 6 -29 28 -29 49 0 46 -26 49 -67 8 -81 -81
-203 -7 -222 134 -19 142 -97 901 -100 976 -2 50 -11 68 -32 62 -114 -30 -119
-29 -119 36 0 62 -3 63 -99 70 -34 2 -67 133 -41 159 27 28 63 -7 50 -48 -41
-128 164 -89 215 41 10 25 12 24 13 -4 1 -18 -12 -47 -28 -63 -38 -39 -38 -73
0 -73 17 0 30 14 30 30 0 17 9 30 20 30 11 0 20 -13 20 -30 0 -16 -9 -30 -20
-30 -36 0 -21 -57 22 -87 29 -20 43 -54 46 -106 4 -80 68 -212 95 -195 27 17
55 -61 34 -98 -14 -25 -12 -34 10 -34 15 0 40 -14 54 -31 22 -27 32 -24 82 24
67 64 77 110 12 55 -25 -20 -19 -8 14 27 32 36 71 65 87 65 16 0 24 12 18 26
-5 15 5 25 27 25 42 0 27 -40 -39 -99 -22 -20 -38 -43 -33 -50 4 -7 -5 -35
-20 -62 -24 -43 -28 -44 -28 -12 -1 36 -4 36 -51 -8 -27 -26 -46 -51 -41 -56
5 -5 1 -26 -10 -47 -14 -26 -14 -37 1 -37 13 0 17 -8 11 -19 -6 -10 -3 -24 9
-31 11 -7 20 -2 20 10 0 12 9 17 20 10 12 -7 16 -20 11 -29 -6 -9 3 -28 19
-41 24 -20 30 -20 30 2 0 15 15 6 33 -20 31 -44 31 -48 0 -66 -18 -10 -33 -27
-33 -37 0 -24 45 -16 65 11 8 11 15 0 15 -25 0 -29 12 -45 33 -45 19 0 28 -5
22 -12 -7 -7 -2 -24 11 -37 19 -21 29 -19 50 7 23 28 26 22 17 -38 -6 -38 -6
-59 0 -45 7 18 23 10 50 -25 22 -28 47 -46 56 -41 8 5 33 -7 55 -28 22 -21 58
-36 78 -34 40 3 42 -7 18 -85 -9 -30 -7 -43 6 -34 29 17 83 -98 70 -147 -7
-26 1 -45 20 -52 18 -7 27 -25 21 -41 -9 -21 7 -28 59 -28 60 0 69 6 60 40 -6
22 -23 40 -38 40 -35 0 -37 33 -3 47 16 6 12 10 -9 11 -90 5 -143 185 -86 294
21 41 27 44 38 17 16 -44 15 -53 -6 -40 -25 15 -39 -52 -20 -99 8 -22 16 -30
17 -17 1 28 77 49 92 25 6 -10 -7 -18 -30 -18 -22 0 -41 -10 -41 -22 0 -12 12
-18 28 -12 15 6 37 1 50 -12 16 -16 22 -10 22 23 0 25 8 40 19 34 10 -6 24 -3
30 8 14 22 68 6 105 -30 13 -14 19 -30 12 -37 -7 -6 20 -13 61 -14 40 -2 84
-5 98 -7 14 -2 36 5 50 16 39 28 55 -1 23 -41 -23 -28 -18 -27 26 5 30 21 55
45 55 52 1 8 27 4 58 -8 43 -16 56 -32 50 -63 -4 -24 5 -15 22 21 17 37 53 71
88 83 33 11 65 40 73 63 11 35 19 39 43 19 16 -13 24 -36 19 -51 -6 -15 -8
-27 -4 -27 17 0 83 74 88 100 13 61 84 116 84 64 0 -24 8 -44 18 -44 30 0 36
68 10 117 -22 43 -25 44 -34 10 -8 -31 -10 -31 -12 7 -2 47 -41 85 -44 42 0
-14 -10 -1 -22 30 l-20 57 -29 -55 c-15 -30 -22 -72 -15 -93 10 -32 5 -37 -30
-26 -42 14 -50 0 -44 -69 2 -20 -5 -16 -21 10 -23 38 -25 37 -50 -20 l-26 -60
5 70 c3 47 -4 68 -21 65 -17 -3 -23 23 -20 90 4 68 -2 94 -21 90 -14 -3 -30 8
-37 25 -21 56 -108 1 -106 -66 1 -26 7 -23 23 11 12 25 35 45 52 45 25 0 25
-5 1 -34 -17 -22 -18 -28 -2 -19 36 22 25 -164 -13 -227 -35 -58 -102 -128
-102 -107 0 8 -11 4 -24 -9 -29 -29 -56 -31 -56 -4 0 11 12 20 26 20 60 0 108
64 86 113 -22 47 -52 63 -52 28 0 -11 -12 -15 -27 -9 -17 6 -32 -8 -40 -36 -9
-36 -17 -40 -36 -21 -20 20 -20 30 -1 49 33 33 31 43 -26 104 -27 30 -50 64
-50 75 0 12 22 17 50 12 57 -11 65 13 19 59 -17 17 -26 44 -20 60 6 15 2 23
-9 16 -11 -7 -21 -28 -22 -46 -1 -21 -5 -24 -11 -9 -6 14 -19 20 -29 14 -10
-6 -18 -3 -18 7 0 38 -97 -1 -108 -43 -21 -78 -14 -98 28 -87 22 6 40 7 40 3
0 -22 -49 -109 -61 -109 -8 0 -20 -21 -26 -46 -7 -26 -28 -47 -51 -48 -25 -2
-36 6 -30 22 5 14 -4 37 -21 51 -17 14 -25 35 -18 46 8 12 3 15 -10 7 -30 -19
-30 13 1 44 16 16 17 24 2 24 -12 0 -28 -15 -35 -34 -11 -30 -16 -31 -31 -6
-11 18 -11 37 1 49 33 33 21 56 -23 45 -33 -9 -38 -4 -27 22 31 77 32 104 1
135 -29 29 -32 28 -32 -15 -1 -37 -4 -40 -20 -16 -14 21 -19 22 -20 4 0 -14
14 -31 31 -37 22 -9 28 -28 19 -66 -6 -30 -3 -77 7 -104 12 -30 12 -62 2 -79
-14 -21 -18 -17 -19 17 0 25 -10 45 -22 45 -15 0 -19 27 -11 75 10 71 9 72
-12 20 -29 -69 -61 -73 -35 -4 11 29 20 78 20 111 0 37 19 79 50 110 57 57 68
91 13 41 -20 -18 -42 -27 -49 -20 -18 18 -58 -94 -45 -127 5 -14 -6 -37 -26
-49 -23 -14 -33 -39 -28 -66 5 -25 -6 -55 -25 -71 -40 -33 -31 87 9 127 26 26
27 53 2 53 -11 0 -32 -24 -47 -53 -17 -31 -34 -44 -41 -31 -8 12 -5 27 7 34
31 19 24 50 -13 50 -19 0 -27 6 -20 14 8 8 46 12 84 9 75 -5 97 34 29 51 -43
11 -55 46 -16 46 13 0 6 13 -15 29 -33 24 -35 35 -14 70 21 34 20 41 -5 41
-16 0 -31 -16 -32 -35 -1 -23 -5 -26 -12 -9 -5 15 4 42 22 62 18 19 26 41 19
49 -8 7 5 13 29 13 23 0 51 16 62 35 12 19 21 24 21 10 1 -37 81 -31 81 6 0
23 -12 28 -43 18 -29 -9 -38 -6 -27 10 13 22 -62 -11 -90 -39 -23 -23 -60 -18
-60 8 0 41 50 74 91 59 23 -9 31 -6 22 8 -8 12 -5 28 6 35 13 7 12 26 -4 50
-20 32 -18 44 13 66 32 23 33 27 5 27 -18 0 -33 -7 -33 -16 0 -9 -14 -17 -31
-17 -22 0 -26 -9 -12 -35 22 -43 8 -90 -22 -72 -12 7 -15 4 -8 -8 7 -11 -1
-26 -17 -32 -17 -7 -30 -26 -30 -42 0 -19 -18 -31 -44 -31 -40 0 -41 2 -8 26
19 14 32 39 28 55 -3 16 5 27 19 24 14 -3 25 4 25 15 0 11 -14 20 -31 20 -17
0 -26 9 -19 20 7 12 21 15 31 9 11 -6 19 7 19 30 0 46 -20 53 -56 17 -16 -16
-24 -16 -24 -2 0 11 20 36 45 55 44 33 43 33 -9 3 -30 -17 -66 -27 -80 -22
-14 6 -50 -12 -80 -40 -62 -57 -86 -64 -69 -20 7 16 4 30 -6 30 -35 0 -41 -35
-11 -60 40 -33 3 -80 -62 -80 -44 0 -45 4 -24 55 37 86 99 147 138 134 21 -6
43 3 56 25 14 25 21 27 21 8 1 -23 8 -22 36 3 33 30 44 35 79 35 8 0 3 11 -10
24 -19 19 -29 19 -48 0 -27 -27 -84 -33 -68 -7 6 9 -6 34 -26 56 -38 41 -26
117 24 153 15 11 8 14 -19 8 -44 -9 -76 40 -68 104 2 15 -7 34 -20 43 -17 10
-11 19 17 28 23 7 48 31 54 52 15 47 90 53 90 7 0 -22 11 -28 34 -19 29 11 28
6 -5 -32 -36 -41 -37 -43 -2 -30 20 7 45 13 56 13 11 0 14 9 7 20 -11 17 15
25 63 18 7 -1 20 10 28 24 20 31 79 42 79 14 0 -12 15 -9 33 7 27 22 35 22 42
1 7 -21 19 -20 56 4 35 23 48 25 55 6 6 -16 14 -13 24 10 13 32 17 32 65 1
123 -81 255 -73 255 15 0 39 6 79 13 90 6 11 -4 36 -24 56 -22 24 -40 29 -48
15 -17 -27 -71 -27 -71 0 0 12 8 16 19 10 10 -6 24 -3 30 7 14 23 -23 49 -84
57 -34 5 -45 -4 -45 -34 0 -23 -9 -41 -20 -41 -27 0 -25 54 2 71 15 9 18 70
11 184 -11 151 -7 177 29 228 23 32 37 69 32 82 -5 14 -1 39 8 57 11 21 7 31
-12 31 -16 0 -24 -7 -19 -15 5 -8 0 -21 -12 -29 -12 -7 -31 -37 -42 -66 -18
-48 -22 -49 -40 -18 -11 20 -27 31 -36 25 -27 -16 0 -87 36 -97 30 -7 30 -9
-1 -11 -31 -2 -32 -9 -5 -84 23 -67 24 -80 2 -72 -40 15 -79 -16 -87 -69 -3
-28 0 -37 10 -23 17 26 104 27 104 1 0 -24 -95 -56 -130 -42 -16 6 -30 2 -30
-10 0 -23 76 -53 115 -46 14 3 25 -10 25 -28 0 -20 -11 -29 -28 -23 -41 16
-56 -8 -27 -43 18 -21 18 -26 1 -17 -13 8 -30 4 -37 -8 -8 -12 -2 -30 13 -39
23 -14 23 -22 2 -43 -21 -21 -29 -20 -44 4 -10 16 -24 23 -32 15 -7 -7 -31 -4
-53 8 -33 17 -49 11 -93 -38 -44 -48 -58 -54 -78 -32 -20 21 -15 28 24 38 33
9 46 22 38 43 -8 21 -16 23 -26 6 -10 -16 -19 -17 -28 -4 -16 26 16 46 93 62
57 12 58 13 21 46 -33 30 -44 31 -90 7 -47 -24 -52 -24 -41 4 8 22 4 27 -14
16 -19 -12 -22 -5 -12 26 8 26 5 43 -8 43 -38 0 -121 -63 -121 -91 0 -41 -97
-129 -128 -117 -32 12 -52 -13 -85 -108 -20 -58 -19 -65 7 -55 30 11 30 10 -8
-84 -6 -14 1 -25 14 -25 15 0 21 -19 15 -49 -5 -30 1 -53 18 -59 39 -16 33
-119 -11 -175 -25 -32 -35 -67 -28 -103 8 -43 4 -52 -19 -43 -18 7 -35 -3 -44
-24 -7 -20 -4 -39 8 -43 12 -4 9 -19 -8 -36 -44 -44 -56 -43 -64 7 -4 25 3 45
16 45 14 0 12 12 -6 33 -15 18 -24 52 -20 74 6 35 2 37 -23 16 -29 -24 -70 33
-59 80 2 7 -15 8 -38 2 -31 -8 -39 -4 -30 17 7 15 18 43 25 61 15 41 83 61
101 30 7 -13 6 -17 -2 -9 -18 16 -82 -40 -65 -57 6 -5 28 -1 50 11 21 11 46
14 55 6 8 -8 10 1 4 19 -7 18 5 51 26 74 50 53 49 55 -16 54 -59 -1 -91 222
-40 284 14 18 11 25 -11 25 -17 0 -35 -11 -40 -25 -5 -14 -17 4 -26 40 l-18
65 -51 -45 c-28 -25 -39 -37 -25 -28 17 12 26 9 26 -6 0 -13 10 -17 23 -9 17
10 20 -6 11 -59 -6 -40 -3 -77 7 -84 11 -6 19 -32 19 -58 0 -25 14 -58 31 -72
42 -35 -32 -108 -91 -89 -47 15 -52 47 -10 63 17 6 30 19 30 29 0 9 -13 12
-30 5 -19 -7 -30 1 -30 22 0 18 -7 29 -16 23 -9 -5 -18 22 -21 60 -2 38 -14
93 -27 123 -37 91 -73 262 -89 423 -5 59 -18 128 -28 154 -11 30 -10 51 4 60
12 8 14 18 3 26 -76 51 -109 832 -48 1152 21 110 44 263 52 340 8 77 21 149
28 160 8 11 30 74 49 140 20 66 49 143 64 170 16 28 38 75 51 105 12 30 34 55
49 55 14 0 32 17 38 37 7 21 43 66 81 101 39 34 70 75 70 90 0 32 52 78 94 85
16 2 40 17 53 34 13 16 93 63 179 104 85 40 164 91 175 111 11 21 40 38 65 38
24 0 70 14 102 30 37 20 82 26 125 18 37 -7 83 -5 102 3 19 9 75 18 123 20 51
2 98 17 110 33 30 41 208 36 269 -8 34 -23 61 -28 93 -16 30 11 63 7 100 -12
34 -17 81 -24 118 -17 46 9 77 1 117 -30 37 -29 68 -38 103 -30 44 11 52 5 67
-54 15 -58 27 -68 86 -73 38 -4 87 -24 109 -44 22 -20 64 -43 94 -50 29 -8 69
-31 88 -52 19 -21 46 -38 61 -38 15 0 27 -13 27 -30 0 -28 147 -234 225 -314
19 -20 35 -58 35 -85 0 -27 11 -55 23 -63 17 -10 19 -3 9 24 -9 25 -8 31 5 18
12 -12 14 -54 4 -104 -14 -79 -12 -85 42 -107 33 -14 57 -39 57 -60 0 -51 22
-100 40 -89 8 5 20 -33 27 -85 6 -52 17 -122 24 -155 6 -33 11 -89 10 -125 -2
-40 7 -65 23 -65 20 -1 21 -4 1 -16 -23 -15 -10 -108 29 -204 7 -16 13 -34 15
-40 1 -5 7 -19 14 -30 20 -34 2 -494 -24 -600 -14 -55 -26 -127 -27 -160 -1
-33 -10 -66 -21 -74 -10 -7 -18 -45 -17 -85 1 -46 -6 -66 -19 -58 -14 9 -17 1
-8 -22 7 -19 19 -58 26 -87 l13 -51 -48 44 c-30 28 -50 36 -55 22 -4 -13 4
-31 20 -41 20 -13 20 -17 2 -18 -14 0 -24 -20 -23 -45 2 -34 5 -36 12 -10 12
45 42 46 39 0 -2 -19 17 -44 42 -55 63 -28 68 -181 5 -164 -44 11 -53 -24 -22
-83 13 -23 7 -67 -16 -133 -35 -100 -35 -150 0 -150 10 0 18 25 18 55 1 89 34
121 43 42 55 -476 9 -1199 -79 -1231 -19 -7 -55 -29 -82 -49 -60 -46 -84 -47
-70 -2 11 33 10 33 -17 0 -16 -19 -34 -29 -41 -22 -18 18 -114 -11 -114 -35 0
-11 9 -15 20 -8 46 28 16 -68 -31 -99 -50 -33 -50 -33 -36 23 l14 55 -54 -35
c-38 -25 -53 -28 -53 -9 -1 17 -6 16 -19 -4 -12 -19 -11 -35 1 -42 31 -19 -78
-139 -113 -126 -16 6 -23 20 -16 31 7 13 19 10 31 -7 16 -22 18 -22 11 2 -4
16 -16 31 -26 35 -30 9 -152 -72 -139 -93 6 -11 -7 -29 -29 -41 -47 -25 -59
14 -17 56 24 24 3 34 -59 25 -47 -6 -29 111 20 135 42 20 42 21 5 22 -51 2
-74 -15 -108 -83 -16 -30 -40 -55 -54 -55 -14 0 -35 -30 -47 -67 -20 -60 -32
-69 -107 -78 -46 -6 -102 -17 -124 -25 -40 -15 -40 -15 0 19 39 33 39 34 -10
21 -70 -17 -83 -21 -140 -45 -27 -11 -57 -16 -65 -12 -8 5 -9 -5 -3 -22 7 -17
32 -32 55 -33 33 -1 29 -6 -21 -25 -264 -96 122 -89 494 10 2314 614 3010
3560 1216 5150 -479 425 -1209 727 -1759 727 -126 0 -127 -2 -135 -150 -7
-125 -77 -195 -107 -105 -6 18 -22 15 -62 -11 -46 -30 -55 -31 -65 -6 -22 58
1 122 47 128 47 7 63 44 20 45 -15 0 -11 11 10 27 101 76 -125 97 -455 41z
m336 -89 c6 -22 3 -40 -5 -40 -28 0 -65 58 -51 79 17 29 43 11 56 -39z m509
-36 c30 -38 32 -77 5 -94 -29 -18 -24 -55 5 -38 14 7 9 -3 -10 -23 -27 -29
-40 -32 -59 -13 -18 18 -13 35 25 75 l49 52 -51 -13 c-35 -8 -60 -2 -78 19
-22 26 -20 31 9 31 30 0 31 5 8 33 -25 29 -22 31 22 18 28 -8 61 -29 75 -47z
m-712 -62 c-12 -7 -14 -25 -5 -39 9 -14 12 -48 6 -76 -6 -35 -14 -43 -25 -25
-13 21 -22 20 -47 -1 -68 -56 -29 82 65 229 7 11 16 -1 20 -28 3 -26 -3 -53
-14 -60z m133 43 c-3 -8 12 -40 32 -70 51 -76 29 -133 -33 -87 -25 19 -60 38
-78 45 -31 10 -31 15 0 69 29 50 91 84 79 43z m-484 -56 c-7 -18 2 -36 22 -43
19 -7 37 -3 41 10 16 46 35 23 40 -46 5 -72 -25 -97 -41 -35 -9 33 -10 33 -12
-1 -1 -19 11 -40 28 -47 16 -6 25 -19 19 -29 -7 -10 -21 -13 -31 -7 -11 7 -40
-1 -65 -17 -58 -38 -114 -11 -99 47 10 36 4 39 -40 28 -28 -7 -68 -3 -88 9
-27 16 -29 21 -6 22 27 1 27 3 0 20 -24 16 -22 19 13 20 24 0 48 -11 54 -25 8
-18 17 -15 32 9 29 46 88 23 74 -29 -11 -43 3 -95 27 -95 8 0 20 18 26 40 6
22 2 40 -8 40 -18 0 -20 113 -3 145 14 28 29 15 17 -16z m1267 -102 c-25 -46
-30 -48 -36 -15 -4 21 -20 52 -35 69 -46 52 7 86 58 38 37 -35 38 -43 13 -92z
m206 56 c-2 -12 7 -17 22 -11 15 5 39 -6 55 -25 18 -22 19 -29 3 -20 -17 11
-25 1 -26 -31 0 -42 -2 -43 -21 -10 -20 35 -23 34 -57 -5 -31 -35 -38 -37 -48
-11 -6 16 -2 30 10 30 13 0 9 20 -10 49 -30 45 -30 49 2 57 48 12 76 3 70 -23z
m285 -64 c15 -46 -41 -104 -85 -89 -14 5 -25 -4 -25 -21 0 -30 -24 -39 -45
-17 -25 24 84 168 127 168 8 0 21 -19 28 -41z m-1943 -91 c31 -32 51 -72 48
-100 -2 -30 -11 -40 -23 -28 -12 12 -30 10 -49 -5 -24 -20 -28 -20 -16 0 10
16 4 25 -16 25 -23 0 -31 21 -31 80 0 94 16 99 87 28z m-167 12 c0 -11 -9 -20
-20 -20 -25 0 -26 -74 -1 -89 10 -6 24 -3 31 9 24 38 40 20 44 -50 2 -39 -4
-70 -14 -70 -44 0 -80 28 -80 62 0 44 -21 49 -56 14 -19 -19 -24 -16 -24 10 0
19 9 34 20 34 11 0 20 9 20 20 0 11 -14 20 -30 20 -30 0 -32 -184 -2 -214 26
-27 10 -50 -28 -40 -27 7 -40 0 -40 -19 0 -50 -36 -10 -51 57 -12 54 -16 58
-34 27 -14 -26 -12 -40 7 -52 15 -9 20 -23 13 -31 -8 -8 -1 -24 15 -36 25 -19
22 -26 -21 -46 -47 -21 -50 -20 -38 18 8 24 3 47 -11 56 -17 11 -20 46 -10
120 8 62 21 95 30 80 12 -19 18 -19 31 2 10 15 6 29 -8 34 -18 6 -19 15 -2 35
43 52 77 13 56 -64 -11 -39 -15 -76 -8 -82 21 -22 32 9 36 102 2 64 11 91 28
85 13 -5 35 3 48 19 27 33 99 39 99 9z m2363 -37 c38 -45 65 -143 39 -143 -11
0 -42 9 -71 20 -52 19 -60 11 -53 -60 2 -22 -3 -20 -19 6 -18 29 -28 31 -51
12 -38 -31 -47 -20 -34 45 8 46 19 52 68 46 52 -6 55 -4 33 32 -26 42 -55 52
-55 19 0 -11 -9 -20 -20 -20 -40 0 -19 57 25 66 87 17 106 14 138 -23z m-231
-69 c-14 -23 -37 -32 -62 -25 -22 6 -57 11 -78 11 -33 0 -32 4 10 37 93 72
179 57 130 -23z m422 -103 c-36 -27 -36 -28 0 -37 29 -7 27 -10 -9 -12 -25 -1
-45 -15 -45 -31 0 -19 12 -25 33 -17 22 9 29 4 22 -16 -5 -15 -21 -26 -34 -23
-13 3 -36 -7 -52 -23 -51 -51 -100 -18 -104 69 -1 44 6 79 17 79 26 0 87 59
64 62 -9 1 7 9 34 17 71 22 126 -29 74 -68z m-2934 49 c0 -11 8 -18 18 -15 10
3 18 -4 19 -15 1 -11 -19 -17 -43 -13 -55 9 -61 15 -45 42 17 27 51 28 51 1z
m3110 -100 c29 -32 31 -45 10 -70 -20 -24 -19 -30 5 -30 44 0 -3 -227 -50
-236 -19 -4 -28 -18 -22 -35 6 -16 1 -29 -11 -29 -12 0 -22 17 -22 38 0 28
-10 36 -40 28 -22 -6 -40 -1 -40 12 0 12 9 22 20 22 11 0 20 9 20 20 0 11 -13
20 -30 20 -44 0 -37 86 10 115 24 16 40 47 40 81 0 97 52 128 110 64z m-3095
-56 c71 -73 51 -110 -34 -64 -28 14 -40 12 -48 -10 -8 -20 1 -30 28 -30 22 0
60 -11 84 -25 25 -14 48 -27 52 -28 25 -14 -24 -83 -51 -73 -22 9 -28 5 -18
-10 9 -16 3 -19 -17 -12 -17 7 -31 23 -31 35 0 13 -9 10 -20 -7 -18 -28 -30 6
-23 63 1 7 -16 8 -38 3 -51 -14 -50 -22 16 -84 55 -53 66 -129 16 -110 -15 6
-33 1 -40 -11 -7 -11 -23 -21 -35 -21 -13 0 -12 10 3 29 33 39 8 79 -28 46
-30 -28 11 -135 52 -135 11 0 0 -22 -26 -50 -48 -50 -97 -66 -97 -30 0 11 9
20 20 20 11 0 20 11 20 23 0 13 -6 18 -13 11 -7 -8 -25 -4 -40 9 -20 16 -27
16 -27 -1 0 -12 -9 -22 -20 -22 -11 0 -20 12 -20 26 0 14 -24 27 -52 30 -45 3
-49 -1 -28 -26 14 -17 37 -30 52 -30 16 0 28 -13 28 -30 0 -16 8 -30 18 -30 9
0 22 -19 28 -41 7 -26 24 -39 45 -35 19 3 39 -5 44 -19 4 -14 -3 -25 -16 -25
-31 0 -99 -78 -99 -113 0 -15 11 -27 24 -27 18 0 18 -6 0 -24 -20 -20 -34 -20
-66 1 -23 14 -47 21 -53 15 -6 -6 4 -17 23 -24 22 -9 27 -20 14 -36 -14 -17
-8 -23 19 -23 21 0 39 7 39 15 0 9 13 16 28 16 16 0 33 11 39 25 8 20 10 19
11 -1 1 -14 -12 -31 -29 -37 -17 -7 -44 -37 -60 -69 -18 -34 -40 -52 -57 -46
-15 6 -34 1 -41 -11 -19 -30 -51 -26 -51 7 0 29 -75 57 -104 39 -25 -15 22
-67 59 -67 53 0 205 -86 205 -116 0 -16 -12 -24 -28 -18 -22 9 -26 -15 -23
-118 4 -88 -3 -135 -22 -150 -21 -18 -27 -14 -27 21 0 24 -8 38 -19 32 -10 -7
-15 -63 -10 -126 5 -63 2 -104 -6 -91 -11 16 -26 18 -46 5 -18 -12 -20 -18 -5
-19 14 0 20 -13 14 -28 -6 -15 -1 -34 12 -42 14 -9 7 -27 -22 -52 -38 -32 -39
-38 -10 -38 52 0 31 -69 -23 -76 -44 -7 -65 -44 -25 -44 11 0 20 -9 20 -19 0
-11 -13 -15 -28 -9 -15 6 -35 0 -43 -14 -12 -18 7 -21 76 -12 91 13 124 -49
42 -80 -15 -6 -27 -27 -27 -48 0 -21 -31 -58 -70 -83 -74 -48 -89 -75 -40 -75
44 0 37 -35 -10 -50 -39 -12 -53 -51 -27 -76 7 -7 28 -4 48 6 31 17 37 8 49
-65 8 -47 40 -126 72 -177 32 -50 58 -105 58 -122 0 -17 36 -56 80 -86 62 -43
75 -62 58 -82 -47 -57 -43 -312 5 -297 23 7 55 15 71 18 16 2 37 17 47 32 14
23 18 20 19 -14 0 -25 -15 -46 -38 -52 -22 -6 -43 -35 -51 -71 -16 -74 -50
-105 -125 -112 -40 -5 -61 -22 -75 -59 -23 -66 -2 -89 52 -56 55 35 69 15 38
-52 -15 -32 -30 -44 -35 -30 -13 34 -66 32 -66 -3 0 -55 50 -123 85 -116 26 5
34 -5 30 -40 -4 -41 4 -46 75 -49 44 -2 96 -4 115 -5 67 -3 41 -89 -40 -132
-56 -30 -75 -53 -75 -90 0 -36 -11 -50 -38 -50 -21 0 -42 -13 -47 -30 -7 -26
-5 -26 12 -1 31 44 40 20 26 -62 -19 -108 -109 -175 -181 -135 -70 40 -84 124
-19 115 56 -8 81 75 29 95 -18 7 -27 20 -21 30 6 10 -5 18 -25 19 -29 0 -26 6
14 28 27 15 56 24 63 19 8 -5 20 1 28 13 7 12 35 30 61 40 58 22 63 59 9 59
-21 0 -44 9 -51 20 -7 11 -33 20 -58 20 -70 0 -88 64 -74 264 1 18 18 38 37
43 19 5 8 8 -25 6 -90 -5 -69 176 23 200 51 12 52 16 40 132 -12 107 -9 120
27 129 22 6 40 23 40 38 0 20 -26 13 -91 -24 -127 -70 -152 -51 -56 45 72 72
134 186 84 155 -11 -7 -17 4 -13 23 3 19 -6 39 -22 44 -20 8 -25 -5 -18 -50 6
-45 1 -58 -18 -51 -16 6 -26 44 -26 98 0 69 -6 84 -30 75 -22 -8 -30 2 -30 38
0 28 -13 61 -30 75 -16 14 -30 37 -30 52 0 16 -9 28 -20 28 -11 0 -20 28 -20
61 0 34 -9 79 -20 99 -11 21 -21 77 -22 124 -1 76 -31 185 -77 276 -9 17 -11
58 -6 92 8 59 6 61 -53 53 -64 -10 -72 -91 -14 -130 12 -8 15 -15 6 -15 -9 0
-10 -10 -2 -23 8 -13 17 -51 19 -85 3 -33 15 -64 27 -68 12 -4 22 -16 22 -27
0 -11 -19 -14 -42 -6 -31 10 -40 6 -33 -14 6 -15 21 -24 35 -21 44 10 84 -38
57 -69 -22 -27 33 -186 64 -187 25 0 20 -167 -5 -185 -18 -13 -15 -15 11 -7
32 11 36 4 28 -39 -6 -29 2 -63 18 -79 29 -29 6 -130 -30 -130 -10 0 -24 -14
-31 -31 -7 -19 -3 -26 10 -18 15 10 18 -1 8 -33 -14 -47 -13 -47 17 -8 31 38
32 37 26 -30 -3 -38 -15 -68 -25 -66 -11 2 -21 -14 -23 -34 -1 -25 7 -34 26
-27 16 6 24 19 18 29 -6 10 -2 18 10 18 11 0 21 -19 21 -41 0 -23 14 -56 32
-74 35 -35 28 -113 -26 -268 -20 -56 -26 -107 -16 -130 15 -34 17 -34 25 -2
14 59 37 39 41 -35 7 -118 7 -139 0 -180 -5 -32 7 -41 59 -46 36 -4 65 -18 65
-32 0 -41 -23 -52 -62 -31 -31 17 -42 9 -67 -52 -28 -67 -79 -81 -67 -19 4 15
-3 26 -14 24 -10 -2 -20 -13 -22 -24 -5 -47 -10 -50 -48 -30 -28 15 -40 41
-39 86 l0 64 28 -49 c28 -52 44 3 58 199 5 74 -51 63 -71 -15 -10 -36 -26 -65
-38 -65 -11 0 -15 -9 -8 -20 16 -26 -2 -25 -51 1 -46 24 -51 70 -9 86 87 34
12 111 -94 96 -17 -3 -43 77 -29 90 5 6 -7 38 -27 72 -20 33 -31 74 -25 91 7
19 4 25 -10 17 -12 -7 -30 12 -41 45 -11 31 -35 74 -52 95 -18 20 -31 42 -29
47 2 6 -6 29 -19 52 -12 23 -26 63 -31 90 -5 26 -18 84 -30 128 -12 44 -27
115 -34 159 -7 43 -26 138 -42 210 -17 72 -32 149 -34 171 -1 22 -15 52 -29
68 -18 18 -20 34 -7 47 11 11 15 33 9 48 -6 16 3 66 20 113 31 83 41 140 65
350 14 126 59 240 111 286 20 17 31 39 23 48 -8 8 7 3 35 -12 27 -16 60 -41
74 -58 22 -26 27 -24 38 15 7 24 22 39 33 32 13 -8 15 -3 7 10 -8 13 -24 18
-36 10 -15 -9 -17 10 -8 58 10 54 6 73 -18 82 -59 23 31 353 96 353 9 0 10 10
3 22 -10 15 -1 15 29 -1 34 -18 42 -17 42 9 0 17 8 46 19 65 15 30 40 90 51
125 1 6 17 42 35 80 18 39 38 94 44 123 10 52 91 96 91 50 0 -13 25 -25 55
-27 53 -4 55 -1 55 100 0 74 7 102 25 99 14 -3 34 16 44 42 18 48 64 55 144
23 26 -10 33 0 34 44 1 31 2 72 3 91 3 45 112 105 131 73 8 -12 3 -29 -11 -38
-20 -12 -19 -25 5 -59 34 -49 46 -38 51 47 7 113 61 135 139 56z m3256 -91
c-6 -24 -6 -32 0 -19 18 38 69 6 69 -43 0 -59 68 -119 119 -106 23 6 50 -3 65
-21 17 -21 18 -27 2 -18 -13 8 -29 6 -36 -6 -7 -11 -1 -20 14 -20 14 0 38 -27
53 -60 16 -37 41 -60 65 -60 51 0 79 -77 64 -171 -11 -70 -10 -72 30 -47 23
14 37 33 32 42 -6 9 -1 16 11 16 20 0 30 -41 22 -98 -6 -45 19 -124 36 -114 9
6 12 38 7 71 -5 38 0 61 15 61 13 0 18 -8 12 -19 -6 -10 -3 -24 9 -31 11 -7
20 -41 20 -76 0 -35 9 -77 19 -93 12 -18 8 -42 -9 -67 -40 -57 -18 -96 42 -73
34 13 48 11 48 -6 1 -19 5 -18 17 1 30 47 103 -102 103 -210 0 -27 8 -43 18
-37 10 6 24 -32 31 -84 8 -52 27 -115 43 -139 15 -25 28 -94 28 -155 0 -75 8
-112 25 -113 20 -1 20 -3 0 -11 -14 -6 -25 -19 -25 -29 0 -10 11 -16 25 -13
14 3 28 -20 32 -55 3 -33 14 -69 22 -80 9 -11 13 -36 10 -55 -3 -19 3 -35 14
-35 11 0 14 -8 8 -19 -7 -10 7 -36 30 -58 51 -47 66 -142 25 -157 -15 -6 -24
-23 -19 -36 6 -14 -12 -46 -39 -72 -33 -31 -41 -50 -25 -60 17 -10 14 -35 -13
-91 -20 -42 -39 -112 -43 -155 -3 -45 -23 -97 -48 -123 -27 -29 -34 -49 -20
-58 24 -15 11 -118 -16 -127 -11 -3 -14 -23 -9 -45 6 -21 1 -39 -11 -39 -12 0
-16 -15 -9 -33 9 -25 5 -31 -18 -22 -24 9 -29 -1 -23 -47 4 -40 -4 -63 -25
-72 -25 -9 -26 -15 -5 -28 20 -13 21 -17 2 -18 -14 0 -25 -9 -25 -21 0 -12
-22 -54 -50 -95 -27 -40 -50 -100 -51 -134 0 -56 -2 -57 -28 -23 -31 41 -71
-79 -42 -126 15 -24 -124 -174 -153 -166 -10 4 -14 -2 -8 -12 6 -10 -7 -34
-28 -53 -22 -20 -40 -43 -40 -52 0 -8 -9 -38 -19 -66 -22 -57 -87 -53 -67 5 9
25 3 23 -23 -7 -32 -38 -33 -36 -25 56 8 82 2 105 -38 148 -49 53 -55 70 -49
131 2 20 -10 35 -28 35 -38 0 -44 120 -6 121 14 0 10 9 -10 21 -32 18 -32 26
-5 91 17 40 30 87 30 106 0 19 20 46 45 59 25 13 30 19 12 14 -35 -10 -66 38
-45 71 6 10 29 13 50 6 21 -6 38 -2 38 10 0 11 -11 21 -25 21 -37 0 -175 160
-175 203 0 20 9 37 20 37 11 0 20 -14 20 -31 0 -64 40 -114 71 -88 16 13 24
32 18 41 -6 10 -1 18 12 18 13 0 18 14 12 30 -7 17 -3 30 7 30 10 0 32 25 48
56 16 32 47 57 71 58 24 2 63 29 87 60 24 30 58 70 76 88 30 30 49 85 67 195
4 25 23 63 41 83 41 45 66 200 33 200 -20 0 -33 -58 -25 -106 2 -10 -6 -11
-18 -4 -11 7 -20 2 -20 -10 0 -39 -109 -14 -117 28 -9 47 34 75 80 51 48 -26
58 4 15 44 -30 29 -36 30 -46 4 -7 -16 -20 -24 -31 -18 -11 7 -14 26 -8 42 8
20 -7 33 -51 42 -67 13 -80 47 -32 87 16 13 25 32 19 42 -6 10 17 45 51 78 67
66 67 69 -9 40 -32 -12 -51 -34 -51 -61 0 -29 -11 -40 -35 -35 -26 5 -35 26
-35 82 0 42 -12 83 -27 92 -19 12 -21 21 -5 31 30 18 28 42 -8 78 -47 47 -75
136 -51 160 34 34 24 57 -19 43 -49 -15 -51 4 -7 53 19 22 61 37 98 37 62 0
64 2 42 50 -21 45 -24 46 -29 10 -4 -24 -22 -40 -47 -40 -25 0 -34 9 -25 23
10 16 3 19 -22 10 -49 -19 -110 3 -110 40 0 19 11 27 29 20 17 -6 35 -2 42 9
8 13 22 12 41 -3 17 -15 28 -16 28 -4 0 12 -14 26 -30 32 -34 13 -79 107 -72
153 3 25 0 25 -15 3 -15 -23 -22 -21 -40 10 -19 32 -25 33 -42 7 -18 -26 -20
-25 -21 5 0 26 16 35 60 35 33 0 60 4 60 8 0 36 -31 72 -61 72 -60 0 -69 43
-19 84 29 24 51 30 59 17 7 -11 14 11 15 49 1 39 -7 76 -19 83 -12 8 -15 4 -7
-10 8 -13 5 -23 -6 -23 -11 0 -15 -15 -8 -33 9 -23 5 -29 -11 -19 -14 9 -23 2
-23 -17 0 -17 -7 -31 -15 -31 -37 1 -56 36 -58 105 -3 123 -5 128 -59 152 -44
20 -49 32 -38 83 10 47 6 60 -18 60 -18 0 -32 9 -32 20 0 11 -13 20 -30 20
-36 0 -39 43 -6 76 29 29 83 32 66 4 -8 -12 14 -18 57 -15 38 3 65 12 59 21
-6 9 -22 12 -36 7 -29 -11 -58 40 -32 56 9 5 28 64 42 130 14 66 33 115 43
109 10 -6 14 -31 8 -55z m206 -1924 c28 -62 30 -162 3 -179 -34 -21 -22 -40
41 -64 56 -22 60 -29 48 -93 -10 -53 -5 -73 20 -87 107 -60 -40 -326 -179
-326 -66 0 -68 9 -39 200 28 186 44 240 71 240 10 0 18 14 18 30 0 17 -17 30
-38 30 -33 0 -36 9 -20 75 9 41 17 109 18 150 0 87 24 97 57 24z m-3752 -269
c29 -259 23 -315 -35 -293 -82 32 -126 261 -79 409 28 85 99 12 114 -116z
m886 -1682 c8 -12 0 -35 -16 -52 -21 -21 -27 -54 -20 -108 8 -64 4 -78 -24
-78 -25 0 -30 11 -21 40 7 23 4 40 -9 40 -11 0 -21 -9 -21 -20 0 -11 -8 -20
-18 -20 -27 0 -16 40 39 135 51 88 68 100 90 63z m-722 -29 c50 -51 16 -178
-53 -196 -46 -12 -56 2 -56 82 0 123 48 174 109 114z m744 -198 c-6 -15 0 -32
13 -37 33 -12 7 -35 -43 -39 -23 -2 -47 -16 -53 -31 -7 -19 0 -25 20 -17 48
19 34 -14 -26 -56 -50 -36 -52 -36 -24 -2 23 29 24 40 5 46 -44 15 -27 62 35
98 33 20 60 43 60 51 0 9 5 16 12 16 7 0 7 -13 1 -29z m-766 -81 c-6 -16 -19
-30 -28 -30 -9 0 -29 -13 -46 -29 -24 -25 -31 -25 -40 -2 -6 17 14 39 53 59
79 38 75 38 61 2z m832 -94 c1 -21 -99 -124 -101 -104 0 10 -4 36 -8 58 -4 21
3 46 16 54 13 8 25 24 27 35 1 12 3 27 5 35 2 16 60 -57 61 -78z m-768 9 c-8
-30 -27 -62 -43 -71 -16 -9 -24 -25 -17 -35 15 -24 -84 -32 -108 -9 -19 19 25
90 55 90 20 0 52 18 72 40 48 54 57 50 41 -15z m40 -223 c-8 -23 -22 -42 -33
-42 -33 0 -44 59 -17 91 33 40 67 7 50 -49z m1409 -62 c12 -22 17 -73 12 -115
-5 -41 -10 -82 -11 -90 0 -8 -11 -15 -23 -15 -15 0 -18 26 -9 75 9 54 7 67 -8
45 -18 -26 -20 -25 -21 5 0 19 9 35 20 35 11 0 19 20 18 45 -2 34 -5 36 -12
10 -8 -30 -46 -52 -46 -27 0 69 50 89 80 32z m927 -275 c5 -9 -21 -36 -59 -61
-79 -52 -86 -45 -23 23 49 53 67 61 82 38z"/>
<path d="M1170 4937 c21 -69 50 -93 50 -41 0 24 0 51 1 59 1 8 -14 18 -32 22
-26 5 -30 -3 -19 -40z"/>
<path d="M860 4723 c0 -9 25 -29 55 -44 30 -15 61 -31 68 -35 8 -3 9 11 4 33
-7 26 -23 35 -49 28 -21 -5 -38 0 -38 13 0 12 -9 22 -20 22 -11 0 -20 -8 -20
-17z"/>
<path d="M982 4608 c-1 -13 -31 -29 -67 -37 -36 -8 -54 -19 -40 -25 14 -5 25
-22 25 -38 0 -30 30 -34 81 -12 22 10 27 30 17 74 -7 33 -14 50 -16 38z"/>
<path d="M1080 4543 c0 -9 18 -33 40 -53 40 -36 51 -21 28 38 -13 33 -68 45
-68 15z"/>
<path d="M736 4470 c-14 -64 7 -103 42 -81 27 16 29 71 3 71 -10 0 -21 16 -26
35 -4 23 -11 14 -19 -25z"/>
<path d="M765 4307 c-44 -18 -27 -57 25 -57 34 0 50 11 50 35 0 34 -25 42 -75
22z"/>
<path d="M760 4180 c-21 -13 -23 -27 -5 -63 22 -46 22 -46 24 -4 0 24 12 47
25 52 15 5 16 12 4 20 -11 7 -32 5 -48 -5z"/>
<path d="M966 4130 c5 -51 38 -75 58 -44 24 38 19 59 -13 47 -15 -6 -33 0 -39
13 -6 13 -9 6 -6 -16z"/>
<path d="M843 3896 c5 -30 23 -48 52 -52 54 -8 45 34 -17 73 -37 23 -40 21
-35 -21z"/>
<path d="M700 3800 c0 -65 2 -67 34 -34 33 32 33 36 0 68 -32 33 -34 31 -34
-34z"/>
<path d="M940 3798 c0 -13 -18 -18 -40 -12 -53 14 -64 -9 -34 -73 31 -67 51
-68 39 -3 -7 37 -1 50 23 50 17 0 32 14 32 30 0 17 -4 30 -10 30 -5 0 -10 -10
-10 -22z"/>
<path d="M512 3763 c-7 -11 -4 -26 8 -33 11 -7 20 -22 20 -34 0 -13 -11 -12
-30 4 -26 21 -30 15 -28 -43 0 -37 6 -56 11 -42 17 40 45 29 37 -15 -4 -22 1
-40 12 -40 11 0 15 -8 9 -18 -17 -29 10 -82 42 -82 18 0 24 10 14 25 -11 20
-8 20 15 1 24 -20 30 -15 33 24 3 26 -4 53 -15 60 -11 7 -20 30 -20 51 0 22
-13 39 -30 39 -16 0 -31 14 -32 30 -5 56 -8 67 -21 80 -7 7 -19 4 -25 -7z"/>
<path d="M780 3550 c0 -16 8 -30 18 -30 10 0 31 -5 47 -11 17 -6 28 2 28 19 0
17 -7 26 -15 21 -8 -5 -21 -1 -28 11 -19 30 -50 24 -50 -10z"/>
<path d="M880 3192 c0 -33 11 -52 30 -52 17 0 30 12 30 28 0 15 -13 38 -30 52
-25 21 -30 17 -30 -28z"/>
<path d="M808 2025 c-31 -21 -73 -105 -53 -105 9 0 13 -34 9 -75 -11 -108 43
-31 71 100 20 94 15 108 -27 80z"/>
<path d="M4872 4950 c7 -33 20 -89 28 -125 9 -37 8 -60 -2 -54 -10 6 -18 -7
-18 -29 0 -26 -10 -37 -27 -30 -15 6 -33 -4 -40 -21 -17 -46 -51 -38 -39 9 6
22 2 40 -8 40 -40 0 -43 -27 -12 -88 18 -34 36 -51 41 -38 4 13 21 19 37 13
23 -9 24 -18 6 -40 -29 -34 -11 -56 31 -40 17 7 25 25 18 42 -6 17 5 56 25 86
43 66 55 225 17 225 -14 0 -35 25 -47 55 l-22 55 12 -60z"/>
<path d="M5017 4645 c-1 -8 -4 -33 -5 -55 -2 -22 -15 -79 -29 -127 -25 -86
-19 -145 7 -65 7 23 21 42 31 42 11 0 19 31 19 69 0 38 9 74 20 81 31 19 24
70 -10 70 -16 0 -31 -7 -33 -15z"/>
<path d="M5178 4505 c0 -8 -4 -31 -8 -50 -4 -23 6 -35 29 -35 46 0 68 73 27
89 -38 15 -46 14 -48 -4z"/>
<path d="M5173 4347 c-23 -24 -14 -62 17 -74 22 -9 30 2 30 38 0 48 -20 63
-47 36z"/>
<path d="M5093 4171 c-42 -32 -28 -71 26 -71 54 0 97 58 60 81 -37 24 -42 23
-86 -10z"/>
<path d="M5461 4137 c-69 -26 -114 -103 -56 -96 57 8 69 -3 59 -54 -7 -37 -3
-49 13 -39 31 19 29 98 -2 129 -20 20 -19 23 7 13 20 -7 38 0 45 18 15 41 -7
51 -66 29z"/>
<path d="M5337 3952 c-25 -55 -7 -100 22 -53 13 21 19 15 25 -21 6 -42 9 -39
18 17 15 90 -31 130 -65 57z"/>
<path d="M5512 3823 c-6 -9 -12 -52 -14 -95 -2 -43 -16 -98 -31 -123 -15 -25
-23 -69 -18 -99 6 -35 -8 -85 -40 -143 -27 -48 -49 -108 -49 -132 0 -23 -9
-52 -21 -64 -26 -26 -3 -87 33 -87 15 0 28 13 28 29 0 16 15 38 34 48 27 15
29 25 10 48 -13 16 -17 35 -9 44 8 8 16 20 17 28 3 30 34 140 68 243 53 164
47 393 -8 303z"/>
<path d="M5312 3805 c-35 -34 -67 -143 -57 -192 12 -65 45 -70 45 -8 1 36 4
39 20 15 22 -34 27 -1 7 50 -10 27 -16 28 -29 7 -13 -20 -17 -21 -18 -2 0 14
18 43 40 65 41 41 53 80 23 80 -9 0 -23 -7 -31 -15z"/>
<path d="M5146 3555 c-51 -66 -49 -75 22 -75 55 0 68 7 59 31 -10 25 -17 25
-43 5 -27 -22 -29 -20 -19 19 13 51 8 56 -19 20z"/>
<path d="M5140 1621 c0 -48 36 -73 65 -44 15 15 14 30 -4 52 -35 42 -61 39
-61 -8z"/>
<path d="M3000 5928 c0 -62 47 -55 56 9 5 28 -4 43 -25 43 -20 0 -31 -18 -31
-52z"/>
<path d="M3120 5224 c0 -55 39 -50 61 8 11 30 6 39 -23 39 -27 0 -38 -14 -38
-47z"/>
<path d="M3613 5267 c-25 -26 -13 -47 27 -47 22 0 40 -10 40 -23 0 -13 5 -18
12 -12 14 14 -28 95 -49 95 -9 0 -22 -6 -30 -13z"/>
<path d="M3716 4736 c28 -28 32 -64 5 -47 -10 6 -24 -7 -31 -29 -17 -55 -217
-59 -248 -5 -12 19 -21 26 -21 14 -1 -12 9 -31 22 -44 17 -17 7 -29 -41 -49
-61 -25 -62 -27 -23 -51 34 -21 41 -20 41 5 0 54 184 93 220 48 20 -25 146
-44 131 -20 -8 13 -22 17 -32 11 -25 -15 -24 44 1 91 22 42 7 100 -26 100 -15
0 -14 -8 2 -24z"/>
<path d="M2491 4701 c-6 -9 -31 -13 -56 -7 -42 9 -42 7 5 -19 30 -16 55 -20
63 -9 7 11 32 6 59 -13 54 -38 98 -43 98 -11 0 12 -13 17 -29 11 -17 -6 -37 0
-45 14 -21 34 -82 56 -95 34z"/>
<path d="M2060 4684 c0 -31 28 -44 135 -64 205 -38 285 -64 285 -92 0 -15 10
-28 21 -28 12 0 15 -10 7 -23 -9 -15 -5 -18 9 -9 13 8 18 25 10 37 -9 14 -1
17 21 8 20 -7 53 -13 76 -13 27 0 37 -10 29 -29 -7 -19 -1 -25 16 -18 37 14
56 67 25 67 -14 0 -61 18 -104 40 -43 22 -97 40 -119 40 -23 0 -97 18 -166 40
-69 21 -138 34 -155 27 -17 -6 -44 0 -60 13 -19 16 -30 17 -30 4z"/>
<path d="M2734 4652 c-6 -15 3 -48 21 -73 l32 -45 17 46 c19 52 3 83 -23 42
-10 -17 -20 -19 -29 -5 -7 11 3 30 23 41 31 18 31 21 2 21 -18 1 -38 -11 -43
-27z"/>
<path d="M4206 4508 c-24 -26 -40 -48 -35 -48 23 0 109 49 109 62 0 37 -34 31
-74 -14z"/>
<path d="M4329 4499 c-16 -26 28 -139 54 -139 11 0 10 16 -1 37 -11 20 -15 56
-9 80 12 44 -20 60 -44 22z"/>
<path d="M2764 4486 c-20 -7 -16 -18 13 -38 22 -15 46 -55 53 -88 7 -33 21
-60 32 -60 24 0 23 94 -2 110 -11 7 -20 30 -20 51 0 38 -24 46 -76 25z"/>
<path d="M4060 4440 c0 -11 9 -20 20 -20 11 0 20 -17 20 -38 0 -42 51 -93 67
-66 6 9 -9 46 -33 80 -44 64 -74 81 -74 44z"/>
<path d="M4217 4387 c-8 -68 -5 -77 20 -71 37 7 86 -35 70 -61 -8 -13 -3 -15
12 -6 18 12 22 5 12 -25 -7 -23 -2 -47 12 -56 16 -10 20 -4 11 20 -11 28 -6
32 29 21 35 -11 41 -7 30 20 -7 19 -13 42 -13 51 0 10 -19 23 -41 30 -23 8
-49 34 -58 58 -19 49 -79 62 -84 19z"/>
<path d="M1750 4280 c-19 -21 -43 -34 -53 -28 -10 6 -16 -1 -12 -16 3 -17 -20
-28 -65 -33 -74 -7 -132 -53 -129 -103 2 -50 32 -100 58 -100 33 0 95 69 78
87 -12 12 86 1 145 -17 12 -3 34 1 49 11 16 9 37 9 50 -2 12 -10 57 -23 101
-30 43 -6 92 -16 108 -22 17 -6 107 -18 200 -28 209 -21 240 -28 317 -67 104
-54 165 4 83 78 -22 20 -40 48 -40 63 0 17 -25 27 -69 27 -58 0 -68 -6 -57
-35 8 -20 -22 -3 -70 40 -81 72 -164 104 -131 50 12 -20 8 -20 -16 0 -17 14
-82 29 -145 33 -62 5 -127 19 -143 33 -17 14 -35 19 -42 13 -6 -7 -24 0 -40
16 -17 17 -55 24 -102 19 -41 -4 -59 -3 -40 3 19 6 35 19 35 29 0 31 -32 22
-70 -21z"/>
<path d="M4418 4192 c-37 -48 3 -112 70 -112 19 0 30 -7 24 -17 -6 -9 3 -16
19 -16 16 0 29 12 29 26 0 15 -21 27 -49 27 -61 0 -80 28 -41 60 37 30 38 53
5 65 -14 6 -40 -9 -57 -33z"/>
<path d="M4088 4093 c-8 -23 -25 -25 -74 -11 -97 27 -131 20 -67 -14 84 -46
52 -54 -49 -13 -65 27 -114 33 -188 24 -55 -7 -108 -9 -117 -4 -10 6 -24 0
-32 -13 -8 -13 -29 -18 -47 -11 -19 7 -29 21 -23 30 5 9 -17 9 -50 -1 -39 -11
-61 -9 -66 5 -4 12 -17 16 -29 9 -30 -19 -69 -134 -45 -134 10 0 19 9 19 20 0
11 14 20 30 20 39 0 38 -28 -1 -61 -33 -28 -79 -1 -79 47 0 13 -21 27 -47 31
-29 4 -42 -2 -35 -14 8 -12 -16 -23 -58 -27 -99 -8 -97 -39 3 -46 46 -4 102
-17 125 -29 24 -13 53 -16 67 -8 26 16 855 23 855 6 0 -29 183 -61 273 -47 53
8 85 18 71 23 -21 7 -20 18 4 55 36 55 -5 86 -65 49 -27 -17 -25 -19 12 -9 26
8 45 4 45 -9 0 -43 -212 18 -310 90 -95 69 -109 74 -122 42z"/>
<path d="M1785 3907 c-14 -6 -25 -20 -25 -31 0 -11 11 -16 25 -10 92 38 95 31
17 -37 -94 -83 -142 -101 -165 -64 -11 17 -27 16 -63 -3 l-48 -26 48 -48 c26
-26 61 -48 77 -48 16 0 29 -9 29 -20 0 -11 23 -20 50 -20 28 0 50 -10 50 -22
0 -12 14 -17 30 -11 17 7 30 3 30 -8 0 -10 18 -19 40 -19 22 0 40 -7 40 -16 0
-8 18 -17 40 -19 22 -1 40 6 40 16 0 11 9 19 20 19 11 0 20 -14 20 -31 0 -17
9 -26 20 -19 45 28 16 66 -61 78 -53 8 -76 21 -67 36 9 15 1 19 -25 12 -79
-21 -93 76 -17 121 126 75 150 74 150 -3 0 -92 59 -144 163 -141 99 2 145 45
145 135 0 78 17 75 147 -23 53 -40 65 -44 65 -17 0 19 14 30 35 26 88 -13 106
-69 63 -191 -25 -71 -58 -84 -58 -23 0 54 -32 51 -48 -5 -7 -28 -18 -37 -27
-24 -8 12 -31 28 -50 35 -38 14 -27 74 13 74 14 0 40 11 58 25 30 22 24 25
-42 25 -77 0 -212 -67 -139 -69 37 -1 50 -41 14 -41 -28 0 -80 -52 -66 -66 6
-6 -8 -21 -31 -33 -31 -17 -42 -17 -42 1 0 16 -9 15 -31 -3 -25 -20 -26 -29
-5 -42 34 -21 101 -22 88 -1 -5 9 16 13 48 8 50 -7 56 -3 46 34 -6 23 -4 42 3
42 28 0 64 -51 57 -80 -5 -17 4 -12 18 10 33 50 96 63 96 20 0 -18 9 -27 20
-20 11 7 20 2 20 -11 0 -13 14 -18 30 -12 21 8 30 -2 30 -35 0 -30 14 -51 38
-57 21 -6 43 -32 48 -58 5 -26 10 -5 11 47 2 51 12 99 23 106 11 7 20 21 20
32 0 11 -9 15 -19 9 -11 -7 -7 12 9 42 40 78 17 87 -40 16 l-47 -59 20 90 c11
50 13 122 5 160 -8 39 -16 78 -16 88 -1 9 -24 31 -52 48 -35 22 -43 23 -25 4
38 -42 30 -70 -10 -36 -19 17 -75 44 -125 61 -49 17 -107 38 -128 46 -29 12
-35 9 -22 -11 13 -20 8 -23 -22 -11 -114 48 -316 22 -463 -59 -87 -48 -92 -36
-19 45 23 25 57 45 77 45 21 0 37 9 37 20 0 20 -129 25 -175 7z"/>
<path d="M3203 3825 c-97 -34 -154 -180 -130 -331 9 -57 16 -187 17 -287 0
-176 2 -186 60 -248 42 -45 52 -67 34 -74 -20 -7 -19 -18 8 -47 19 -21 27 -38
19 -38 -9 0 -5 -13 8 -29 51 -61 19 -251 -41 -251 -8 0 -19 -21 -25 -46 -7
-25 -42 -81 -79 -124 -60 -69 -66 -86 -53 -154 12 -67 10 -73 -17 -51 -27 22
-29 13 -20 -70 6 -53 3 -95 -8 -95 -10 0 -12 -10 -5 -22 10 -16 19 -15 30 4
13 21 22 21 47 -1 18 -14 52 -20 80 -13 30 7 53 2 59 -13 8 -20 10 -20 11 0 1
14 28 25 61 25 32 0 64 8 70 19 7 10 36 11 70 1 61 -17 66 10 15 75 -12 16
-12 25 2 25 12 0 27 -18 34 -40 12 -38 32 -48 82 -42 12 1 38 -16 58 -38 34
-38 90 -55 90 -27 0 18 -107 107 -130 108 -23 0 -130 91 -130 109 0 7 9 7 20
0 11 -7 20 7 20 30 0 27 -8 37 -23 28 -14 -9 -18 -5 -9 9 8 13 5 23 -7 23 -11
0 -21 24 -21 52 0 41 6 48 26 31 20 -16 26 -10 26 26 0 39 -6 45 -35 30 -50
-27 -65 -23 -38 9 19 23 16 28 -13 23 -28 -4 -35 -21 -32 -80 4 -61 0 -71 -23
-52 -15 12 -22 40 -17 62 9 32 0 39 -48 39 -94 0 -115 -38 -54 -102 60 -63 84
-204 32 -194 -17 3 -35 19 -40 34 -6 18 -1 22 16 12 17 -10 22 -6 16 12 -6 17
-38 28 -78 28 -47 0 -68 9 -68 30 0 21 17 28 55 24 63 -8 69 8 24 58 -36 39
-7 110 54 129 31 10 61 54 66 99 1 11 17 17 36 14 23 -4 35 7 35 33 0 85 106
50 158 -52 19 -37 18 -45 -7 -45 -17 0 -31 -9 -31 -20 0 -32 80 -23 93 10 6
17 20 30 30 30 11 0 14 -9 7 -20 -7 -11 5 -20 25 -20 21 0 38 13 38 29 0 16
-6 25 -14 20 -8 -4 -19 16 -25 46 -6 30 -43 90 -83 133 -39 42 -71 88 -71 102
0 26 -99 102 -124 95 -16 -5 -44 123 -41 180 1 19 -6 35 -16 35 -11 0 -19 9
-19 19 0 11 14 15 30 8 20 -7 27 -2 22 16 -32 103 -33 142 -3 130 38 -14 91 4
91 31 0 11 -13 15 -29 9 -19 -7 -27 2 -25 28 3 50 7 49 61 -10 45 -48 45 -48
70 -8 14 23 23 43 19 46 -3 3 -46 34 -94 68 -144 103 -161 256 -30 280 21 4
52 20 70 35 17 16 67 46 110 67 68 35 72 39 28 40 -62 0 -220 -70 -220 -98 0
-12 -10 -21 -21 -21 -12 0 -16 9 -9 20 7 11 1 20 -14 20 -19 1 -18 5 3 19 26
16 25 20 -5 30 -71 23 -85 25 -111 16z"/>
<path d="M3650 3803 c-70 -23 -219 -125 -256 -175 l-37 -49 74 -31 c110 -46
183 -29 84 20 -93 45 -93 48 13 127 108 82 110 81 98 -12 -9 -66 -3 -83 44
-120 118 -92 286 -19 266 116 -5 33 -4 61 2 60 31 -1 159 -115 147 -129 -8 -9
1 -10 21 -3 28 10 35 4 30 -22 -3 -19 -27 -38 -52 -41 -24 -4 -39 -16 -33 -26
8 -12 -8 -14 -39 -7 -33 8 -52 5 -52 -9 0 -12 0 -28 -1 -36 0 -8 25 -17 55
-21 71 -10 77 -17 46 -55 -14 -17 -20 -37 -13 -44 7 -7 13 -2 13 11 0 12 15
23 32 23 27 0 28 -5 8 -30 -14 -17 -19 -37 -11 -45 8 -8 26 1 40 20 14 19 36
35 48 35 13 0 23 8 23 18 0 23 65 17 87 -8 9 -11 12 0 6 26 -8 37 -3 43 27 34
28 -9 42 4 60 59 16 50 35 71 63 71 25 0 34 9 25 23 -10 16 -4 20 19 11 18 -7
33 -5 33 5 0 10 6 33 13 53 9 22 6 30 -8 21 -12 -7 -58 -15 -103 -16 -65 -3
-82 -11 -82 -40 0 -48 -25 -47 -70 3 -20 22 -44 40 -54 40 -9 0 -50 22 -91 49
-127 84 -365 130 -475 94z"/>
<path d="M3635 3322 c-6 -21 -3 -49 5 -63 12 -18 19 -14 26 13 7 29 10 30 12
5 1 -18 23 -36 48 -41 66 -13 69 60 3 76 -27 7 -49 20 -49 30 0 34 -35 18 -45
-20z"/>
<path d="M3360 3199 c0 -28 11 -40 35 -36 19 3 46 -1 59 -9 44 -28 47 23 2 55
-61 43 -96 39 -96 -10z"/>
<path d="M1975 3186 c-64 -10 -68 -22 -20 -58 33 -25 33 -27 0 -27 -19 -1 -35
8 -35 19 0 11 -13 20 -30 20 -16 0 -30 -8 -30 -18 0 -10 -18 -14 -40 -8 -22 6
-40 1 -40 -10 0 -11 -6 -37 -14 -57 -12 -33 -10 -34 22 -8 20 16 55 32 79 35
144 19 178 29 156 51 -16 16 -16 29 0 49 12 14 19 25 14 23 -4 -2 -32 -7 -62
-11z"/>
<path d="M3810 3100 c-15 -47 -50 -54 -50 -10 0 35 -56 39 -100 8 -23 -16 -19
-17 18 -7 38 11 46 7 37 -16 -7 -18 8 -48 37 -73 37 -32 48 -35 48 -12 0 41
58 38 107 -5 22 -19 33 -24 25 -10 -8 14 -4 25 10 25 15 0 10 16 -13 41 -20
22 -48 36 -62 31 -14 -6 -32 0 -39 12 -9 13 -5 17 9 8 14 -9 18 -3 11 17 -16
41 -23 39 -38 -9z"/>
<path d="M2759 3075 c0 -40 -2 -41 -21 -10 -29 50 -49 44 -84 -29 -22 -46 -25
-72 -10 -90 15 -19 11 -29 -17 -39 -20 -8 -44 -24 -52 -36 -9 -13 -14 -11 -15
7 0 20 -15 15 -50 -18 -27 -26 -50 -63 -50 -82 0 -56 -38 -65 -59 -14 -15 36
-19 38 -20 10 0 -20 9 -55 21 -78 17 -31 16 -53 -3 -88 -14 -27 -20 -53 -14
-60 22 -22 52 11 65 71 14 63 77 147 103 138 10 -3 29 19 43 48 14 30 44 64
65 76 21 11 39 34 39 50 0 16 10 29 21 29 12 0 16 8 10 19 -6 10 7 24 29 31
41 13 59 110 20 110 -11 0 -20 -20 -21 -45z"/>
<path d="M3330 3060 c-18 -29 33 -136 69 -147 17 -4 46 -15 65 -22 45 -19 27
53 -26 101 -21 19 -38 46 -38 61 0 32 -52 36 -70 7z"/>
<path d="M3951 2856 c4 -24 23 -58 41 -75 31 -28 33 -28 21 4 -8 24 -1 35 23
36 26 1 24 7 -11 23 -25 12 -45 30 -45 39 0 9 -8 17 -19 17 -10 0 -15 -20 -10
-44z"/>
<path d="M4533 2839 c-31 -37 -31 -43 0 -90 39 -60 60 -51 27 11 -26 49 -8 85
20 40 28 -45 36 -16 10 34 -23 44 -23 44 -57 5z"/>
<path d="M2320 2683 c0 -51 21 -67 53 -40 21 17 22 29 5 50 -32 38 -58 34 -58
-10z"/>
<path d="M4444 2620 c3 -36 16 -69 30 -74 14 -6 26 -27 26 -48 0 -21 18 -49
40 -63 22 -13 40 -34 41 -45 0 -11 14 -38 32 -60 29 -38 30 -36 16 30 -8 39
-36 92 -63 119 -47 47 -49 66 -15 151 14 35 12 37 -15 14 -26 -21 -37 -20 -64
7 -30 30 -33 28 -28 -31z"/>
<path d="M4358 2538 c34 -32 40 -48 23 -65 -17 -17 -32 -11 -59 25 -20 26 -41
39 -47 30 -6 -10 23 -43 64 -73 l76 -54 0 54 c1 56 -45 125 -82 125 -11 0 0
-19 25 -42z"/>
<path d="M4440 2435 c0 -51 -8 -98 -18 -104 -10 -6 -14 -28 -8 -49 5 -21 1
-55 -10 -75 -20 -37 16 -121 40 -96 6 5 0 -22 -12 -60 -13 -44 -33 -69 -52
-66 -16 3 -28 -7 -25 -21 4 -20 -4 -21 -35 -4 -22 12 -40 30 -40 41 0 10 -10
19 -21 19 -22 0 -14 -99 10 -139 7 -11 5 -21 -6 -21 -11 0 -14 -19 -8 -43 8
-31 4 -39 -13 -28 -18 11 -22 -5 -14 -62 l11 -77 -32 75 c-18 41 -41 75 -50
75 -11 0 -10 -15 1 -36 12 -22 12 -48 -1 -70 -10 -18 -16 -35 -13 -36 3 0 23
-4 43 -8 52 -10 64 -27 28 -41 -20 -7 -27 -27 -20 -55 11 -42 10 -43 -28 -9
-58 51 -124 38 -72 -13 28 -29 16 -142 -19 -172 -41 -36 -75 -154 -38 -131 13
8 35 43 49 78 l26 63 15 -78 c9 -48 7 -83 -6 -91 -34 -21 -1 -98 45 -105 42
-7 42 -7 -4 -20 -35 -10 -50 -5 -56 21 -13 49 -87 94 -87 53 0 -16 14 -30 30
-30 17 0 30 -18 30 -40 0 -22 -9 -40 -20 -40 -11 0 -20 10 -20 23 0 13 -6 18
-13 11 -7 -7 -2 -26 12 -43 45 -54 12 -69 -45 -20 -31 27 -47 49 -35 49 11 0
20 16 19 35 -1 21 -5 25 -11 10 -6 -14 -24 -25 -41 -25 -18 0 -26 -11 -19 -29
6 -17 2 -35 -9 -42 -13 -8 -7 -29 16 -54 20 -23 24 -35 9 -26 -21 12 -24 6
-13 -27 17 -57 -20 -101 -74 -87 -29 8 -38 4 -28 -12 9 -14 1 -23 -18 -23 -18
0 -28 8 -22 17 11 17 -60 74 -151 121 -71 36 -94 107 -26 82 57 -22 78 17 31
56 -19 16 -20 21 -4 13 21 -12 25 -3 18 39 -6 29 -3 58 7 64 9 6 17 -6 17 -27
0 -43 115 -93 167 -73 23 8 33 1 34 -25 1 -30 5 -27 21 11 14 36 11 53 -12 70
-35 25 -64 143 -31 122 12 -7 21 2 21 20 0 42 60 31 104 -20 19 -22 35 -31 35
-19 1 12 -10 33 -24 48 -15 16 -16 22 -2 14 13 -7 28 1 35 19 19 49 14 82 -8
48 -15 -24 -19 -20 -20 18 0 27 5 43 12 37 35 -35 60 37 41 119 -22 94 -42
109 -59 44 -12 -45 -54 -35 -54 13 0 16 -9 29 -19 29 -11 0 -14 -15 -7 -33 9
-23 5 -29 -11 -19 -15 10 -23 -3 -23 -38 0 -29 9 -47 20 -40 11 7 15 -1 8 -17
-6 -17 -24 -35 -40 -41 -34 -13 -37 -66 -4 -77 13 -4 17 -22 10 -42 -18 -47
-100 1 -87 52 13 50 -22 64 -37 14 -11 -33 -19 -36 -42 -18 -18 15 -28 16 -28
3 0 -12 22 -38 49 -60 27 -21 55 -62 62 -91 7 -29 21 -53 29 -53 9 0 11 -18 6
-41 -11 -41 -36 -36 -36 8 0 12 -11 24 -25 26 -48 4 -50 7 -24 38 18 22 19 37
4 52 -28 28 -110 2 -91 -29 7 -13 -2 -11 -21 4 -21 17 -27 34 -15 41 11 7 13
24 3 39 -19 32 -32 14 -51 -76 -11 -53 -9 -64 13 -53 15 8 10 0 -10 -16 -20
-17 -32 -39 -25 -50 32 -52 -14 -89 -50 -40 -42 55 -94 27 -69 -37 14 -34 16
-34 32 4 9 22 18 33 20 25 10 -37 14 -56 17 -71 1 -8 29 -32 63 -51 41 -25 57
-47 50 -70 -14 -43 99 -119 116 -78 6 15 10 10 11 -11 1 -20 9 -32 18 -27 9 6
17 -8 19 -30 2 -33 -3 -36 -26 -16 -20 16 -29 17 -29 2 0 -36 -55 -3 -67 40
-6 23 -20 35 -32 28 -36 -23 -23 -66 24 -78 25 -7 65 -48 91 -92 48 -85 140
-83 113 3 -7 20 6 54 30 79 22 25 41 58 41 75 0 23 5 25 24 6 35 -35 105 31
73 69 -12 15 -13 27 -3 27 11 0 30 -23 43 -51 13 -28 33 -45 44 -38 14 8 14
20 1 37 -32 39 32 122 70 91 23 -19 28 -15 30 24 0 26 6 36 11 22 16 -40 47
-8 47 48 0 33 9 48 25 42 27 -11 80 34 61 52 -6 6 4 26 22 43 17 18 32 43 31
56 0 13 -19 -1 -41 -31 -46 -62 -69 -69 -85 -26 -7 20 1 26 28 21 28 -6 42 6
51 42 8 30 23 46 38 41 15 -6 31 8 37 32 9 35 16 38 42 16 24 -20 31 -20 31
-2 0 14 18 50 39 80 22 31 34 61 27 68 -7 7 9 31 35 54 33 28 40 46 24 56 -24
14 -5 64 27 70 30 5 29 73 0 73 -16 0 -43 5 -60 12 -24 9 -32 0 -32 -37 0 -53
-63 -124 -90 -100 -9 8 -11 -1 -4 -20 7 -19 5 -35 -5 -35 -22 0 -49 72 -51
135 -1 25 5 45 14 45 40 0 11 32 -32 35 -39 3 -46 -3 -38 -35 6 -22 1 -40 -12
-40 -24 0 -29 39 -10 88 7 18 20 27 30 21 24 -15 23 5 -3 52 -15 28 -14 39 2
39 13 0 18 14 12 30 -7 17 -3 30 8 30 10 0 19 14 19 30 0 40 20 38 52 -5 25
-33 27 -33 27 2 1 31 6 34 31 13 32 -26 41 -1 33 90 -4 39 -4 39 28 0 29 -36
31 -36 21 -3 -7 20 -12 53 -12 73 0 21 -13 50 -29 66 -37 38 -15 61 27 29 28
-22 29 -21 5 9 -15 19 -20 46 -11 60 12 21 10 21 -14 2 -24 -19 -35 -16 -56
18 -17 28 -19 46 -5 54 14 8 15 40 4 89 -25 110 -41 113 -41 8z m-157 -1003
c9 5 11 -4 5 -21 -7 -17 -22 -25 -33 -18 -14 9 -17 1 -8 -21 7 -20 13 -40 13
-45 0 -5 9 -4 20 3 11 7 14 -1 8 -19 -29 -75 -61 -14 -51 97 3 30 -2 33 -25
14 -15 -13 -24 -43 -18 -68 9 -43 8 -43 -23 -5 -22 27 -24 43 -8 53 16 10 13
32 -10 79 -18 36 -33 67 -33 70 0 2 33 -26 73 -63 40 -36 81 -62 90 -56z
m-263 58 c0 -27 -8 -50 -18 -50 -23 0 -45 58 -31 82 22 35 49 17 49 -32z m328
-22 c8 -21 27 -29 53 -22 34 9 37 6 18 -17 -16 -20 -34 -23 -59 -9 -38 21 -69
80 -42 80 10 0 23 -15 30 -32z"/>
<path d="M1596 2465 c-46 -53 -66 -94 -39 -77 34 21 28 -19 -7 -48 -38 -32
-39 -62 -1 -48 26 10 100 186 84 202 -4 3 -20 -10 -37 -29z"/>
<path d="M4180 2470 c0 -30 83 -170 100 -170 39 0 19 60 -40 120 -33 34 -60
56 -60 50z"/>
<path d="M3760 2378 c0 -55 85 -144 105 -109 14 26 7 47 -27 83 -48 51 -78 61
-78 26z"/>
<path d="M3628 2337 c-9 -15 3 -36 29 -53 23 -16 43 -41 43 -55 0 -14 24 -45
53 -68 59 -47 52 -76 -10 -43 -22 12 -58 22 -79 22 -22 0 -50 13 -64 30 -27
33 -69 20 -47 -14 7 -13 4 -16 -8 -9 -12 7 -27 38 -34 69 -8 36 -26 57 -52 59
-39 2 38 -130 87 -152 9 -4 32 -24 51 -44 19 -21 75 -57 124 -80 210 -100 235
-118 259 -183 21 -59 25 -62 39 -26 16 42 55 -28 45 -82 -2 -12 9 -21 24 -21
21 0 28 23 25 86 -2 64 -11 85 -32 82 -16 -3 -33 13 -38 34 -6 32 -2 35 21 16
23 -19 28 -12 30 41 1 35 -2 48 -7 29 -12 -41 -30 -44 -63 -11 -37 37 -29 56
24 56 26 0 53 14 60 31 7 19 3 26 -9 18 -11 -7 -34 -2 -50 12 -20 17 -29 17
-29 1 0 -12 -13 -22 -28 -22 -34 0 -63 66 -33 76 12 4 16 15 10 25 -5 9 -22
13 -36 7 -15 -5 -38 5 -53 22 -21 25 -30 26 -42 7 -11 -18 -42 2 -105 69 -61
65 -95 87 -105 71z m191 -277 c-13 -9 -18 -26 -10 -38 18 -30 -15 -28 -45 2
-41 41 -28 71 28 61 34 -7 43 -16 27 -25z"/>
<path d="M4209 2261 c0 -21 6 -34 13 -30 17 11 38 -41 38 -95 0 -28 9 -37 32
-28 17 7 40 12 51 12 10 0 -4 30 -32 67 -28 37 -51 77 -51 90 0 13 -12 23 -26
23 -14 0 -25 -17 -25 -39z"/>
<path d="M1491 2222 c-19 -31 97 -41 128 -11 26 25 20 29 -44 29 -40 0 -78 -8
-84 -18z"/>
<path d="M2182 1861 c-77 -40 -45 -69 56 -48 42 8 64 1 84 -26 16 -21 53 -49
84 -62 68 -30 74 -31 74 -5 0 11 -10 18 -22 15 -13 -3 -27 6 -32 20 -6 16 10
25 44 25 44 0 51 -7 40 -40 -7 -23 -4 -40 9 -40 11 0 21 7 21 15 0 46 230 105
244 63 7 -21 149 -25 276 -10 59 8 154 -42 168 -87 5 -17 8 -8 6 19 -3 38 5
49 31 44 19 -3 35 5 35 18 0 17 8 16 30 -2 17 -14 30 -35 30 -46 0 -15 -7 -15
-22 0 -27 27 -78 12 -78 -21 0 -13 31 -23 70 -23 39 0 70 7 70 15 0 8 22 15
49 15 27 0 55 10 62 21 7 12 25 17 40 12 14 -6 37 2 50 18 15 18 42 24 71 17
51 -13 66 18 23 45 -13 8 -101 17 -195 20 -93 2 -190 8 -215 14 -24 6 -48 4
-53 -4 -11 -18 -303 -10 -469 13 -70 10 -205 16 -300 14 -95 -3 -182 2 -193
11 -11 8 -50 0 -88 -20z"/>
<path d="M4431 1861 c-16 -25 59 -100 84 -84 14 9 5 28 -26 57 -27 23 -53 36
-58 27z"/>
<path d="M4600 1802 c0 -37 65 -99 93 -88 36 14 35 86 -1 86 -16 0 -43 5 -60
12 -18 7 -32 2 -32 -10z"/>
<path d="M3921 1761 c-24 -15 -24 -28 -4 -72 13 -30 30 -49 37 -42 6 7 0 26
-14 43 -14 16 -16 30 -6 30 11 0 19 14 19 30 0 17 0 30 -1 30 -1 0 -15 -9 -31
-19z"/>
<path d="M1720 1570 c48 -51 120 -68 120 -28 0 12 -13 17 -28 11 -16 -6 -49 7
-73 28 -64 55 -75 48 -19 -11z"/>
<path d="M2696 1566 c-41 -10 -71 -91 -39 -102 34 -11 28 -84 -7 -84 -16 0
-30 -16 -30 -35 0 -21 6 -26 15 -14 53 77 129 -6 92 -101 -6 -16 -1 -30 11
-30 12 0 22 17 22 38 0 22 23 47 59 62 41 17 63 43 73 87 12 55 16 58 29 23 9
-22 17 -30 18 -17 0 12 15 28 31 34 26 10 27 5 7 -32 -21 -39 -20 -42 7 -20
25 21 43 12 110 -54 87 -85 112 -86 94 -3 -9 40 -7 45 10 22 30 -41 28 -8 -2
39 -14 22 -18 46 -9 55 8 8 24 2 34 -15 14 -22 18 -17 19 24 0 28 -15 64 -33
79 -29 25 -31 23 -19 -17 9 -27 6 -45 -7 -45 -11 0 -21 9 -21 20 0 11 -13 20
-28 20 -16 0 -32 8 -35 17 -15 38 -123 47 -109 9 9 -28 3 -26 -26 9 -32 37
-40 39 -50 13 -6 -17 -21 -25 -33 -18 -13 9 -16 -5 -8 -38 18 -69 -5 -134 -32
-91 -15 24 -19 24 -21 -6 -6 -75 -9 -82 -33 -90 -18 -6 -16 11 5 63 36 86 38
156 6 188 -25 25 -40 26 -100 10z"/>
<path d="M3269 1452 c-1 -110 61 -169 75 -71 5 33 2 59 -6 59 -8 0 -18 20 -22
43 -12 81 -47 59 -47 -31z"/>
<path d="M2510 1487 c-23 -23 -26 -39 -11 -54 11 -11 22 -39 23 -62 0 -23 6
-30 11 -16 6 14 20 19 32 12 12 -7 16 -4 9 7 -7 11 0 37 16 58 16 21 29 52 29
68 0 27 -2 27 -19 0 -13 -20 -19 -22 -20 -5 0 35 -31 31 -70 -8z"/>
<path d="M2649 1291 c-18 -28 -28 -61 -22 -75 6 -16 10 -13 11 9 1 19 10 35
19 35 10 0 15 -25 11 -55 -4 -34 -2 -39 5 -15 6 22 22 53 34 68 17 22 17 31
-2 37 -14 5 -20 17 -14 27 26 42 -13 14 -42 -31z"/>
<path d="M2881 1302 c-13 -24 -32 -38 -42 -31 -10 6 -19 -2 -19 -18 0 -16 -11
-35 -25 -41 -14 -6 -5 -7 20 0 27 6 45 2 45 -12 0 -12 9 -17 20 -10 11 7 20 0
20 -14 0 -16 23 -26 59 -26 33 0 60 -9 60 -20 1 -20 -7 -23 -79 -27 -26 -2
-40 -17 -40 -43 0 -22 -9 -40 -20 -40 -12 0 -15 22 -7 53 9 37 6 49 -10 39
-13 -8 -23 -2 -23 15 0 40 -54 57 -68 22 -6 -16 -1 -29 10 -29 11 0 14 -10 6
-23 -9 -14 -23 -6 -40 25 -24 44 -27 44 -28 8 0 -30 -5 -33 -18 -13 -13 21
-19 20 -29 -5 -6 -18 -30 -32 -52 -32 -23 0 -41 -12 -41 -27 0 -18 16 -24 47
-18 36 6 50 -2 59 -35 6 -25 21 -38 33 -31 11 7 21 -1 21 -18 0 -38 18 -38 67
-2 22 17 31 38 22 53 -11 17 -6 21 18 11 18 -7 47 -18 63 -25 21 -9 30 0 30
28 0 30 12 39 51 37 42 -3 49 -11 40 -48 -7 -25 -3 -45 9 -45 11 0 20 23 20
50 0 63 21 63 81 -1 26 -27 60 -45 75 -39 22 8 25 -2 16 -40 -10 -41 -5 -50
26 -50 22 0 45 -9 53 -21 7 -11 32 -15 56 -9 29 9 34 7 17 -5 -21 -15 -21 -22
0 -39 46 -35 93 -44 103 -20 5 13 11 8 11 -11 1 -19 10 -35 20 -35 28 0 42 57
16 65 -17 6 -16 19 6 46 29 36 28 36 -18 4 -48 -33 -50 -32 -109 49 -34 45
-64 72 -68 60 -6 -16 -19 -16 -46 2 -55 34 -48 60 12 49 38 -7 49 -3 41 18 -6
15 -1 27 10 27 11 0 15 9 8 20 -7 11 -2 20 10 20 12 0 16 11 8 24 -10 16 -21
10 -35 -20 -21 -48 -43 -56 -64 -22 -8 12 -2 30 13 40 22 14 21 17 -7 18 -19
0 -35 -8 -35 -18 0 -10 -31 -21 -70 -26 -38 -4 -70 0 -70 10 0 10 -13 13 -30
7 -23 -9 -30 3 -30 48 0 38 -10 59 -29 59 -15 0 -32 16 -36 35 -7 29 -13 26
-31 -15 l-21 -50 -2 50 c-3 82 -32 113 -60 62z"/>
<path d="M3358 1204 c29 -55 118 -96 146 -68 13 13 16 30 7 39 -9 8 -21 3 -26
-11 -6 -18 -24 -10 -60 25 -59 59 -95 67 -67 15z"/>
<path d="M2513 1184 c-7 -11 -2 -25 12 -31 14 -5 5 -11 -19 -11 -24 -1 -49
-11 -57 -23 -7 -11 -48 -43 -93 -71 -44 -28 -75 -56 -68 -62 6 -7 25 0 42 14
35 29 41 -1 6 -36 -19 -19 -16 -24 10 -24 19 0 34 13 34 28 0 34 43 52 122 52
38 0 58 10 58 29 0 16 18 39 40 51 22 12 40 32 40 45 0 17 -7 16 -25 -2 -19
-19 -31 -15 -57 19 -19 26 -37 35 -45 22z"/>
<path d="M3762 1022 c-30 -19 -13 -62 25 -62 13 0 26 18 28 40 3 44 -10 49
-53 22z"/>
<path d="M3672 951 c14 -36 108 -99 108 -71 0 11 -8 20 -18 20 -9 0 -22 18
-28 40 -6 22 -24 40 -41 40 -19 0 -27 -11 -21 -29z"/>
<path d="M3835 924 c-19 -4 -35 -14 -35 -23 0 -25 64 -45 83 -26 24 24 -9 58
-48 49z"/>
<path d="M4387 904 c-40 -40 -13 -88 35 -58 21 13 38 30 38 39 0 8 9 15 19 15
38 0 -4 -62 -61 -91 -64 -33 -76 -94 -28 -142 29 -29 43 -5 32 59 -5 32 40 94
69 94 16 0 29 13 29 28 0 16 5 43 12 60 15 39 -105 36 -145 -4z"/>
<path d="M2633 856 c-6 -24 -7 -48 -2 -53 5 -6 9 1 9 15 0 13 9 19 20 12 11
-7 20 -34 20 -61 0 -30 9 -44 25 -38 26 10 36 109 10 109 -8 0 -15 14 -15 30
0 47 -54 35 -67 -14z"/>
<path d="M4284 776 c-29 -29 -32 -76 -5 -76 18 0 61 63 61 89 0 19 -31 12 -56
-13z"/>
<path d="M3360 713 c0 -51 109 -144 117 -100 4 20 16 47 26 60 23 29 -10 52
-87 61 -37 4 -56 -4 -56 -21z"/>
<path d="M4214 684 c-22 -5 -33 -19 -26 -36 6 -15 1 -28 -10 -28 -12 0 -15
-18 -8 -40 9 -27 4 -40 -16 -40 -16 0 -34 -18 -40 -40 -6 -25 -27 -40 -56 -40
-44 0 -45 1 -7 29 34 26 35 30 5 30 -18 1 -39 -8 -46 -18 -6 -11 -43 -35 -81
-53 -72 -34 -91 -68 -39 -68 17 0 30 14 30 30 0 17 14 30 31 30 23 0 28 -12
18 -42 -11 -37 -8 -39 29 -19 23 12 42 31 42 42 0 10 11 19 25 20 46 1 187
139 143 140 -26 1 -17 11 31 35 109 55 96 92 -25 68z"/>
<path d="M2689 634 c-23 -28 -15 -94 12 -94 11 0 19 27 19 60 0 67 -1 69 -31
34z"/>
<path d="M3154 646 c-23 -6 -33 -21 -25 -39 6 -17 11 -34 11 -39 0 -36 51 3
53 42 1 28 1 49 0 48 -2 -2 -19 -7 -39 -12z"/>
<path d="M3355 629 c-20 -20 9 -89 37 -89 16 0 28 7 27 15 -1 26 -52 85 -64
74z"/>
<path d="M2687 54 c0 -20 24 -29 78 -29 87 0 78 24 -17 44 -45 9 -61 5 -61
-15z"/>
</g>
</svg>
