<?xml version="1.0" encoding="UTF-8"?>
<!--Generator: Apple Native CoreSVG 232.5-->
<!DOCTYPE svg
PUBLIC "-//W3C//DTD SVG 1.1//EN"
       "http://www.w3.org/Graphics/SVG/1.1/DTD/svg11.dtd">
<svg version="1.1" xmlns="http://www.w3.org/2000/svg" xmlns:xlink="http://www.w3.org/1999/xlink" width="100%" height="100%" viewBox="0 0 30.249 29.8975">
 <g>
  <rect height="29.8975" opacity="0" width="30.249" x="0" y="0"/>
  <path d="M14.9414 29.8828C23.1152 29.8828 29.8828 23.1006 29.8828 14.9414C29.8828 6.76758 23.1006 0 14.9268 0C6.76758 0 0 6.76758 0 14.9414C0 23.1006 6.78223 29.8828 14.9414 29.8828Z" fill="#E4280D" fill-opacity="1"/>
  <path d="M9.03809 16.2305C8.17383 16.2305 7.58789 15.7764 7.58789 14.9707C7.58789 14.1504 8.14453 13.6816 9.03809 13.6816L20.874 13.6816C21.7529 13.6816 22.2949 14.1504 22.2949 14.9707C22.2949 15.7764 21.7236 16.2305 20.874 16.2305Z" fill="#fff"/>
 </g>
</svg>
