<?xml version="1.0" encoding="UTF-8"?>
<!--Generator: Apple Native CoreSVG 232.5-->
<!DOCTYPE svg
PUBLIC "-//W3C//DTD SVG 1.1//EN"
       "http://www.w3.org/Graphics/SVG/1.1/DTD/svg11.dtd">
<svg version="1.1" xmlns="http://www.w3.org/2000/svg" xmlns:xlink="http://www.w3.org/1999/xlink" width="100%" height="100%" viewBox="0 0 30.249 29.8975">
 <g>
  <rect height="29.8975" opacity="0" width="30.249" x="0" y="0"/>
  <path d="M14.9414 29.8828C23.1152 29.8828 29.8828 23.1006 29.8828 14.9414C29.8828 6.76758 23.1006 0 14.9268 0C6.76758 0 0 6.76758 0 14.9414C0 23.1006 6.78223 29.8828 14.9414 29.8828Z" fill="#F2642D" />
  <path d="M7.79297 14.9561C7.79297 14.1943 8.32031 13.667 9.08203 13.667L13.667 13.667L13.667 9.08203C13.667 8.32031 14.1797 7.77832 14.9268 7.77832C15.6885 7.77832 16.2158 8.32031 16.2158 9.08203L16.2158 13.667L20.8154 13.667C21.5625 13.667 22.1045 14.1943 22.1045 14.9561C22.1045 15.7031 21.5625 16.2012 20.8154 16.2012L16.2158 16.2012L16.2158 20.8008C16.2158 21.5625 15.6885 22.0898 14.9268 22.0898C14.1797 22.0898 13.667 21.5479 13.667 20.8008L13.667 16.2012L9.08203 16.2012C8.32031 16.2012 7.79297 15.7031 7.79297 14.9561Z" fill="#fff"/>
 </g>
</svg>
