<?xml version="1.0" encoding="UTF-8"?>
<!--Generator: Apple Native CoreSVG 232.5-->
<!DOCTYPE svg
PUBLIC "-//W3C//DTD SVG 1.1//EN"
       "http://www.w3.org/Graphics/SVG/1.1/DTD/svg11.dtd">
<svg version="1.1" xmlns="http://www.w3.org/2000/svg" xmlns:xlink="http://www.w3.org/1999/xlink" width="20.9133" height="22.4323">
 <g>
  <rect height="22.4323" opacity="0" width="20.9133" x="0" y="0"/>
  <path d="M20.5696 15.3216C20.5696 11.0615 17.6868 8.11917 12.8116 8.11917L6.03171 8.11917L2.42127 8.28503L2.75578 8.90098L5.43617 6.64018L8.20616 3.93958C8.41177 3.7271 8.54712 3.47466 8.54712 3.12383C8.54712 2.45889 8.08993 1.98323 7.38998 1.98323C7.10445 1.98323 6.77682 2.12266 6.54973 2.34975L0.374471 8.42618C0.130624 8.66122 0 8.97596 0 9.30059C0 9.61641 0.130624 9.93308 0.374471 10.1662L6.54973 16.2407C6.77682 16.4766 7.10445 16.6072 7.38998 16.6072C8.08993 16.6072 8.54712 16.1335 8.54712 15.4685C8.54712 15.1158 8.41177 14.8633 8.20616 14.6528L5.43617 11.961L2.75578 9.69332L2.42127 10.3093L6.03171 10.4732L12.8779 10.4732C16.338 10.4732 18.2387 12.4347 18.2387 15.2316C18.2387 18.0353 16.338 20.087 12.8779 20.087L10.3782 20.087C9.67334 20.087 9.18415 20.6134 9.18415 21.2596C9.18415 21.9059 9.67334 22.4323 10.3782 22.4323L12.9564 22.4323C17.7504 22.4323 20.5696 19.6118 20.5696 15.3216Z" fill="#fff" />
 </g>
</svg>
