<?xml version="1.0" encoding="UTF-8"?>
<!--Generator: Apple Native CoreSVG 232.5-->
<!DOCTYPE svg
PUBLIC "-//W3C//DTD SVG 1.1//EN"
       "http://www.w3.org/Graphics/SVG/1.1/DTD/svg11.dtd">
<svg version="1.1" xmlns="http://www.w3.org/2000/svg" xmlns:xlink="http://www.w3.org/1999/xlink" width="100%" height="100%" viewBox="0 0 28 28">
 <g>
  <rect height="20.0" opacity="0" width="20.0" x="0" y="0"/>
  <path d="M7.26493 19.1494C7.82352 19.1494 8.26416 18.9163 8.57031 18.4493L18.6675 2.70852C18.8938 2.35446 18.9844 2.05819 18.9844 1.76665C18.9844 1.02695 18.4643 0.516488 17.7169 0.516488C17.1866 0.516488 16.8788 0.694807 16.5572 1.19969L7.22196 16.0304L2.41139 9.84501C2.09836 9.43036 1.76987 9.25677 1.30581 9.25677C0.538823 9.25677 0 9.79366 0 10.5353C0 10.8539 0.119023 11.1757 0.386931 11.5012L5.95246 18.4645C6.32306 18.9279 6.72374 19.1494 7.26493 19.1494Z" fill="#fff" fill-opacity="1"/>
 </g>
</svg>
