<?xml version="1.0" encoding="UTF-8"?>
<!--Generator: Apple Native CoreSVG 232.5-->
<!DOCTYPE svg
PUBLIC "-//W3C//DTD SVG 1.1//EN"
       "http://www.w3.org/Graphics/SVG/1.1/DTD/svg11.dtd">
<svg version="1.1" xmlns="http://www.w3.org/2000/svg" xmlns:xlink="http://www.w3.org/1999/xlink" width="100%" height="100%" viewBox="0 0 28 28">
 <g>
  <rect height="21.2578" opacity="0" width="21.9844" x="0" y="0"/>
  <path d="M8.43164 21.2578C9.22852 21.2578 9.85547 20.9473 10.2832 20.3027L21.1934 3.60352C21.5039 3.13477 21.6328 2.69531 21.6328 2.29102C21.6328 1.19531 20.8066 0.398438 19.6875 0.398438C18.9141 0.398438 18.4395 0.667969 17.9648 1.40625L8.38477 16.5352L3.51562 10.5C3.08789 9.97266 2.61328 9.73828 1.95703 9.73828C0.820312 9.73828 0 10.5527 0 11.6543C0 12.1406 0.152344 12.5742 0.568359 13.0605L6.62109 20.3906C7.11914 20.9824 7.6875 21.2578 8.43164 21.2578Z" fill="#F3EEE2" fill-opacity="1"/>
 </g>
</svg>
