<?xml version="1.0" encoding="UTF-8"?>
<!--Generator: Apple Native CoreSVG 232.5-->
<!DOCTYPE svg
PUBLIC "-//W3C//DTD SVG 1.1//EN"
       "http://www.w3.org/Graphics/SVG/1.1/DTD/svg11.dtd">
<svg version="1.1" xmlns="http://www.w3.org/2000/svg" xmlns:xlink="http://www.w3.org/1999/xlink" width="23.9121" height="23.7656" viewBox="0 0 26 26">
 <g>
  <rect height="23.7656" opacity="0" width="23.9121" x="0" y="0"/>
  <path d="M0 9.86719C0 15.3223 4.42383 19.7402 9.87305 19.7402C11.6836 19.7402 13.3594 19.2363 14.7891 18.375L19.4941 23.0859C19.9512 23.543 20.5664 23.7598 21.2051 23.7598C22.5586 23.7598 23.5605 22.7285 23.5605 21.3867C23.5605 20.7656 23.3379 20.168 22.8809 19.7109L18.2285 15.0352C19.1895 13.5527 19.7461 11.7773 19.7461 9.86719C19.7461 4.41797 15.3223 0 9.87305 0C4.42383 0 0 4.41797 0 9.86719ZM3.33984 9.86719C3.33984 6.26367 6.26953 3.33984 9.87305 3.33984C13.4766 3.33984 16.4004 6.26367 16.4004 9.86719C16.4004 13.4766 13.4766 16.4004 9.87305 16.4004C6.26953 16.4004 3.33984 13.4766 3.33984 9.86719Z" fill="#716B61" fill-opacity="0.5"/>
 </g>
</svg>
